<?xml version="1.0" encoding="UTF-8"?>
<svg id="Layer_2" data-name="Layer 2" xmlns="http://www.w3.org/2000/svg" xmlns:xlink="http://www.w3.org/1999/xlink" viewBox="0 0 226.81 45.4">
  <defs>
    <linearGradient id="linear-gradient" x1="0" y1="22.7" x2="49.4" y2="22.7" gradientUnits="userSpaceOnUse">
      <stop offset="0" stop-color="#00feb5"/>
      <stop offset=".2" stop-color="#00f8b9"/>
      <stop offset=".4" stop-color="#00e7c6"/>
      <stop offset=".6" stop-color="#00ccda"/>
      <stop offset=".9" stop-color="#00a7f7"/>
      <stop offset="1" stop-color="#009eff"/>
    </linearGradient>
  </defs>
  <g id="Layer_1-2" data-name="Layer 1">
    <g>
      <path d="M75.85,37.07l-6.54-7.29-6.54,7.29h-7.56l10.49-11.37-10.49-11.37h7.08l7.01,7.35,7.01-7.35h7.08l-10.42,11.37,10.42,11.37h-7.56ZM110.24,37.07l-14.16-12.39,12.8-10.42h-7.22l-9.94,7.9v-13.89h-5.92v28.8h5.92v-8.92l10.76,8.92h7.76ZM126.79,19.57v-5.24h-4.09c-7.35,0-11.03,2.38-11.03,7.22v15.52h5.99v-15.52c0-1.29,1.5-1.97,4.56-1.97h4.56ZM226.81,37.07v-16.07c0-4.43-3.75-6.67-11.24-6.67h-7.69c-7.56,0-11.37,2.25-11.37,6.74v16.07h5.99v-15.66c0-.27.14-.48.41-.68s.61-.41,1.09-.61.95-.27,1.57-.41c.61-.07,1.23-.14,1.97-.14h8.03c.75,0,1.43,0,2.04.14.61.07,1.16.2,1.63.34s.82.34,1.09.54.41.48.41.68v15.73h6.06ZM160.08,31.83v5.24h-17.57c-2.18,0-4.09-.2-5.72-.61-1.63-.41-3-.95-4.09-1.63s-1.91-1.43-2.45-2.32c-.54-.89-.82-1.84-.82-2.79v-8.03c0-1.16.27-2.18.82-3.06s1.36-1.7,2.38-2.32,2.25-1.09,3.75-1.43c1.43-.34,3.06-.48,4.83-.48h8.72c1.43,0,2.79.14,4.02.48,1.23.34,2.32.75,3.2,1.29s1.63,1.23,2.11,2.04c.48.82.75,1.7.75,2.72v7.69h-24.38c0,2.18,2.93,3.27,8.72,3.27h15.66l.07-.07ZM135.5,23.79h18.73v-2.38c0-1.29-1.63-1.97-4.9-1.97h-8.72c-3.4,0-5.17.61-5.17,1.91v2.45h.07ZM193.65,31.83v5.24h-17.57c-2.18,0-4.09-.2-5.72-.61-1.63-.41-3-.95-4.09-1.63s-1.91-1.43-2.45-2.32c-.54-.89-.82-1.84-.82-2.79v-8.03c0-1.16.27-2.18.82-3.06s1.36-1.7,2.38-2.32,2.25-1.09,3.75-1.43c1.43-.34,3.06-.48,4.83-.48h8.72c1.43,0,2.79.14,4.02.48s2.32.75,3.2,1.29c.89.54,1.63,1.23,2.11,2.04s.75,1.7.75,2.72v7.69h-24.38c0,2.18,2.93,3.27,8.72,3.27h15.66l.07-.07ZM169,23.79h18.73v-2.38c0-1.29-1.63-1.97-4.9-1.97h-8.72c-3.4,0-5.17.61-5.17,1.91v2.45h.07Z" style="fill: #002858;"/>
      <path d="M26.67,9.74l16.06,1.4.05,15.65h-3.98s-.04-8.49-.04-8.49l-11.24,12.8-5.88.28,15.05-16.98-10.03-.51v-4.15ZM49.4,12.41v20.58c0,4.55-3.59,8.27-8.1,8.47h0s-29.6,3.87-29.6,3.87h0c-.42.05-.85.08-1.29.08-5.48,0-9.97-4.22-10.41-9.59V9.59C.43,4.22,4.92,0,10.41,0c.44,0,.87.03,1.29.08h0s29.6,3.86,29.6,3.86h0c4.51.2,8.1,3.91,8.1,8.47ZM45.75,12.76h0s0-.04,0-.06c0-2.68-2.15-4.49-4.86-4.86-.09-.01-29.2-3.55-29.2-3.55,0,0-.77-.11-1.16-.11-3.45,0-6.26,2.81-6.26,6.26v24.52c0,3.45,2.81,6.26,6.26,6.26.4,0,1.16-.11,1.16-.11,0,0,29.11-3.53,29.2-3.55,2.71-.37,4.86-2.18,4.86-4.86,0-.02,0-.04,0-.06h0V12.76Z" style="fill: url(#linear-gradient);"/>
    </g>
  </g>
</svg>