<?xml version="1.0" encoding="UTF-8"?>
<svg id="Layer_2" data-name="Layer 2" xmlns="http://www.w3.org/2000/svg" xmlns:xlink="http://www.w3.org/1999/xlink" viewBox="0 0 333.14 65.38">
  <defs>
    <linearGradient id="linear-gradient" x1="0" y1="32.69" x2="72.67" y2="32.69" gradientUnits="userSpaceOnUse">
      <stop offset="0" stop-color="#00feb5"/>
      <stop offset=".17" stop-color="#00f8b9"/>
      <stop offset=".39" stop-color="#00e7c6"/>
      <stop offset=".64" stop-color="#00ccda"/>
      <stop offset=".91" stop-color="#00a7f7"/>
      <stop offset=".97" stop-color="#009eff"/>
    </linearGradient>
  </defs>
  <g id="Layer_1-2" data-name="Layer 1">
    <g>
      <path d="M111.38,52.16l-9.62-10.7-9.62,10.7h-11.1l15.37-16.74-15.37-16.68h10.42l10.3,10.76,10.3-10.76h10.42l-15.32,16.68,15.32,16.74h-11.1ZM161.88,52.16l-20.78-18.16,18.79-15.26h-10.59l-14.58,11.61V9.86h-8.71v42.3h8.71v-13.09l15.83,13.09h11.33ZM186.19,26.48v-7.74h-5.98c-10.82,0-16.23,3.55-16.23,10.65v22.77h8.82v-22.77c0-1.94,2.22-2.9,6.66-2.9h6.72ZM333.14,52.16v-23.63c0-6.53-5.49-9.79-16.45-9.79h-11.27c-11.12,0-16.68,3.28-16.68,9.85v23.57h8.83v-23c0-.38.19-.73.57-1.05.38-.32.9-.61,1.56-.85s1.43-.44,2.31-.57c.87-.13,1.82-.2,2.85-.2h11.84c1.06,0,2.06.07,2.99.2.93.13,1.74.31,2.42.54s1.23.5,1.62.83c.4.32.6.67.6,1.05v23.06h8.83ZM235.15,44.47v7.69h-25.79c-3.19,0-5.98-.29-8.38-.88-2.4-.59-4.4-1.38-6-2.36-1.6-.99-2.81-2.13-3.61-3.44-.8-1.31-1.2-2.68-1.2-4.13v-11.79c0-1.71.42-3.23,1.25-4.55.83-1.33,2.01-2.46,3.53-3.39s3.34-1.64,5.47-2.14c2.12-.49,4.5-.74,7.12-.74h12.81c2.12,0,4.09.23,5.89.68,1.8.46,3.37,1.09,4.7,1.91,1.33.82,2.36,1.82,3.1,3.02.74,1.19,1.11,2.53,1.11,4.01v11.27h-35.81c0,3.23,4.27,4.84,12.81,4.84h23ZM199,32.69h27.5v-3.5c0-1.91-2.39-2.87-7.16-2.87h-12.78c-5.04,0-7.56.94-7.56,2.82v3.56ZM284.35,44.47v7.69h-25.79c-3.19,0-5.98-.29-8.38-.88-2.4-.59-4.4-1.38-6-2.36-1.6-.99-2.81-2.13-3.61-3.44-.8-1.31-1.2-2.68-1.2-4.13v-11.79c0-1.71.42-3.23,1.25-4.55.83-1.33,2.01-2.46,3.53-3.39,1.52-.93,3.34-1.64,5.47-2.14,2.12-.49,4.5-.74,7.12-.74h12.81c2.12,0,4.09.23,5.89.68,1.8.46,3.37,1.09,4.7,1.91,1.33.82,2.36,1.82,3.1,3.02.74,1.19,1.11,2.53,1.11,4.01v11.27h-35.81c0,3.23,4.27,4.84,12.81,4.84h23ZM248.19,32.69h27.5v-3.5c0-1.91-2.39-2.87-7.16-2.87h-12.78c-5.04,0-7.56.94-7.56,2.82v3.56Z" style="fill: #fff;"/>
      <path d="M15.52,65.38C7.53,65.38.86,59.57,0,51.86v-.06S.01,13.27.01,13.27v-.07C.86,6.51,6.7.74,13.32.07c.46-.05.96-.07,1.57-.07.33,0,.66,0,.99.01.3,0,.61.01.91.01.18,0,.67-.01.67-.01l44.73,5.85c6.63,1.07,10.63,6.7,10.46,14.69v24.08c0,9.97-5.43,14.07-9.08,14.39-8.98,1.46-18.3,2.64-27.31,3.77-6.18.78-12.51,1.57-18.8,2.47-.67.08-1.32.12-1.95.12ZM6.42,50.98c.5,4.71,4.65,8.26,9.67,8.26.37,0,.74-.02,1.1-.06l44.4-5.36c3.76-.63,5.75-4.01,5.74-7.01v-28.34c0-1.6-1.44-6.44-5.89-7.03L17.12,6.12h-.31c-.12,0-1.29-.01-1.4-.01-.31,0-.62,0-.93.04-4.12.46-7.75,4.17-8.08,8.26v36.57ZM53.95,19.87l-14.67-.83v-6.15l23.67,2.06v22.96h-5.87l.02-12.62-16.67,19.01-8.66.43,22.18-24.87Z" style="fill: url(#linear-gradient);"/>
    </g>
  </g>
</svg>
