<?xml version="1.0" encoding="UTF-8"?>
<svg id="Layer_1" data-name="Layer 1" xmlns="http://www.w3.org/2000/svg" viewBox="0 0 305 46">
  <path d="M188.56,10.34l-9.57,25.33h-2.03l-9.49-25.33h2.51l7.99,21.65,8.07-21.65h2.51ZM192.31,21.78h10.69v2.44h-10.69v9.01h10.69v2.44h-13.21V10.34h13.21v2.51h-10.69v8.93h0ZM226.12,10.34v25.33h-3l-13.81-22.33.26,22.33h-2.52V10.34h3l13.88,22.33-.3-22.33h2.48ZM232.76,12.85v8.93h10.69v2.44h-10.69v9.01h10.69v2.44h-13.13V10.34h13.13v2.51h-10.69ZM265.33,10.34l-9.68,25.33h2.55l3.07-7.96h11.18l3.08,7.96h2.63l-9.76-25.33h-3.07ZM258.16,10.34v2.51h-5.14v22.81h-2.44V12.85h-5.06v-2.51h12.64ZM262.14,25.46l4.69-12.76,4.84,12.76h-9.53ZM159.7,35.66l-9.79-25.33h-3l-9.83,25.33h2.63l3-7.96h11.26l3.08,7.96h2.66ZM31.27,12.7c2.06,0,3.64.37,4.58,1.09.94.6,1.43,1.69,1.43,3.11,0,1.58-.49,2.7-1.43,3.45-1.01.68-2.78.98-5.22.98h-1.5v-8.63h2.14ZM26.84,10.34v25.33h5.48c3.08,0,5.4-.56,6.83-1.76,1.39-1.24,2.06-3.19,2.14-5.74-.08-1.43-.37-2.63-1.09-3.68-.68-1.09-1.69-1.88-3.04-2.44.94-.56,1.61-1.2,2.06-2.03.41-.79.6-1.8.6-3,0-2.29-.67-3.94-2.06-4.99-1.31-1.13-3.38-1.69-6.23-1.69h-4.69ZM43.09,22.83c0,3.83,1.24,7.02,3.75,9.53,2.44,2.55,5.52,3.79,9.19,3.79,1.88,0,3.64-.3,5.25-.98,1.58-.75,3-1.84,4.39-3.26,1.05-1.2,1.91-2.55,2.48-4.05s.83-3.19.83-5.03-.3-3.49-1.01-4.99c-.56-1.58-1.5-2.93-2.85-4.24-1.15-1.24-2.56-2.2-4.13-2.81-1.58-.64-3.19-.94-4.95-.94-1.67,0-3.33.31-4.88.94-1.54.59-2.93,1.53-4.05,2.74-1.31,1.24-2.25,2.7-2.96,4.31-.67,1.57-1.05,3.19-1.05,4.99h0ZM46.73,18.33c.67-1.43,1.61-2.63,2.81-3.68.88-.78,1.9-1.39,3-1.8l3.49-.64c2.81,0,5.25,1.05,7.32,3.19,2.06,2.06,3.08,4.5,3.08,7.43,0,3.08-1.01,5.7-2.96,7.77-1.99,2.14-4.43,3.19-7.35,3.19s-5.33-1.05-7.39-3.19c-1.99-2.06-3-4.62-3-7.69,0-1.5.3-3,1.01-4.58h0ZM68.41,10.34h25.14v2.51h-5.07v22.81h-2.51V12.85h-9.98v22.81h-2.51V12.85h-5.07v-2.51h0ZM98.06,21.78h10.69v2.44h-10.69v9.01h10.69v2.44h-13.21V10.34h13.21v2.51h-10.69v8.93ZM112.62,17.84c.66-1.64,1.67-3.11,2.96-4.31,1.35-1.39,2.74-2.33,4.17-2.74,1.5-.64,3.19-.94,5.07-.94,2.44,0,4.69.6,6.64,1.8,1.95,1.13,3.45,2.81,4.62,5.14h-3c-1.16-1.58-2.44-2.7-3.79-3.45-1.39-.75-2.89-1.13-4.58-1.13-2.93,0-5.44,1.05-7.43,3.19-2.06,2.06-3.08,4.58-3.08,7.5,0,3.08,1.01,5.7,3.08,7.77,2.06,2.06,4.54,3.11,7.5,3.11,2.25,0,4.31-.75,6.19-2.17,1.8-1.5,3-3.45,3.56-5.89h-12.72v-2.17h15.72c-.19,3.75-1.58,6.75-4.02,9.04-2.44,2.4-5.44,3.56-9.08,3.56s-6.68-1.24-9.12-3.79c-2.51-2.51-3.75-5.7-3.68-9.53,0-1.71.33-3.4.98-4.99ZM37.19,24.97c1.09.75,1.58,1.95,1.58,3.57s-.49,2.74-1.5,3.57c-1.05.82-2.55,1.2-4.58,1.2h-3.56v-9.57h3.56c2.03,0,3.53.41,4.5,1.24h0ZM148.33,12.7l4.8,12.76h-9.49l4.69-12.76h0Z" style="fill: #838f8c; fill-rule: evenodd;"/>
</svg>
