<?xml version="1.0" encoding="UTF-8"?>
<svg id="Layer_1" data-name="Layer 1" xmlns="http://www.w3.org/2000/svg" viewBox="0 0 305 46">
  <path d="M224.55,5.41c-.69,0-1.24.56-1.24,1.24v8.71h23.01l-10.48-9.95h-11.29M247.16,17.99c0-.68-.55-1.24-1.24-1.24,0,0,0,0,0,0h-8.71v23.01l9.95-10.48v-11.29M234.57,40.59c.69,0,1.24-.56,1.24-1.24v-8.71h-23.01l10.48,9.95h11.29M211.96,28.01c0,.69.56,1.24,1.24,1.24h8.71V6.25l-9.95,10.48v11.29" style="fill: #838f8c;"/>
  <path d="M106.51,9.61v10.62h-14.8v-10.62h-5.39s0,26.79,0,26.79h5.39v-11.51h14.8v11.51h5.4V9.61h-5.4M178.23,9.61v26.78h23.65s-3-4.71-3-4.71h-15.25v-6.79h14.76v-4.54h-14.76v-6.13h15.22l2.94-4.6h-23.57M66.28,9.6c-5.61,0-8.44,3.41-8.44,8.37v10c0,5.74,3.65,8.42,8.41,8.42h16.91s-3.13-4.9-3.13-4.9h-12.73c-2.7,0-3.88-.98-3.88-4.01v-9.07c0-2.93.99-4.07,3.95-4.07h12.8l3.01-4.74h-16.89M154.58,9.59c-3.24,0-6.56,1.95-6.56,6.95v1.29c0,5.22,3.19,7.21,6.39,7.23h11.22c1.16,0,2.11.19,2.11,2.16v2.28c-.03,1.77-.92,2.17-2.15,2.17h-14.76l-3.02,4.71h18.12c4.37,0,7.34-2.17,7.34-7.2v-1.85c0-4.86-2.76-7.15-7.03-7.15h-10.71c-1.19,0-2.01-.33-2.01-2.08v-1.85c0-1.5.57-2.04,1.95-2.04h14.05s2.94-4.62,2.94-4.62h-17.88M127.58,9.61l-12.7,26.78h6l2.47-5.53h13.8l2.47,5.53h6.03l-12.73-26.78h-5.34M130.24,15.17l4.88,11.13h-9.73l4.85-11.13Z" style="fill: #838f8c;"/>
</svg>
