<?xml version="1.0" encoding="UTF-8"?>
<svg id="Layer_1" data-name="Layer 1" xmlns="http://www.w3.org/2000/svg" viewBox="0 0 305 46">
  <path d="M160.62,5.29c4.07,0,7.38,17.18,7.38,38.37h5.9c0-22.82-5.95-41.32-13.28-41.32-4.17,0-7.9,5.56-10.33,14.26-2.43-8.69-6.16-14.26-10.33-14.26-7.34,0-13.28,18.5-13.28,41.32h5.91c0-21.19,3.3-38.37,7.38-38.37s7.38,15.86,7.38,35.42h5.9c0-19.56,3.3-35.42,7.38-35.42M176.86,40.71c.8,0,1.47.63,1.47,1.47s-.67,1.48-1.47,1.48-1.48-.63-1.48-1.48.68-1.47,1.48-1.47M176.86,43.45c.68,0,1.2-.55,1.2-1.27s-.53-1.25-1.2-1.25-1.21.54-1.21,1.25c0,.72.53,1.27,1.21,1.27ZM176.28,41.32h.67c.41,0,.6.16.6.49,0,.31-.19.44-.45.47l.49.76h-.29l-.47-.74h-.28v.74h-.27v-1.72ZM176.55,42.09h.28c.23,0,.45-.01.45-.29,0-.23-.2-.27-.38-.27h-.35v.55Z" style="fill: #838f8c;"/>
</svg>
