<?xml version="1.0" encoding="UTF-8"?>
<svg id="Layer_1" data-name="Layer 1" xmlns="http://www.w3.org/2000/svg" viewBox="0 0 305 46">
  <path d="M120.4,13.93h1.23c2.68,0,4.13,1.74,4.13,3.84,0,2.39-1.45,4.06-3.92,4.06h-1.45v-7.91h0ZM117.72,21.84h-2.32v.65h7.76c2.54,0,5.44-1.38,5.44-4.72,0-2.61-2.32-3.99-4.64-4.13v-.07c1.96-.14,3.92-1.45,3.92-3.99,0-2.25-1.96-3.77-5.44-3.77h-7.04v.65h2.32v15.38h0ZM120.4,6.46h.65c2.68,0,4.06,1.45,4.06,3.26,0,2.61-1.81,3.55-3.99,3.55h-.73v-6.82h0Z" style="fill: #838f8c; fill-rule: evenodd;"/>
  <path d="M137.38,18.07c0,2.1-.22,4.13-2.47,4.13s-2.54-2.03-2.54-4.13v-1.23c0-2.03.15-4.06,2.54-4.06s2.47,2.03,2.47,4.06v1.23h0ZM129.83,17.49c0,2.97,2.1,5.37,5.08,5.37s5.01-2.47,5.01-5.37-2.03-5.44-5.01-5.44-5.08,2.47-5.08,5.44h0Z" style="fill: #838f8c; fill-rule: evenodd;"/>
  <path d="M163.42,18.07c0,2.1-.22,4.13-2.47,4.13s-2.54-2.03-2.54-4.13v-1.16c0-2.1.22-4.13,2.54-4.13s2.47,2.03,2.47,4.13v1.16h0ZM155.87,17.49c0,2.97,2.1,5.44,5.08,5.44s5.08-2.54,5.08-5.44-2.1-5.44-5.08-5.44-5.08,2.47-5.08,5.44h0Z" style="fill: #838f8c; fill-rule: evenodd;"/>
  <path d="M173.5,21.84h1.45v-7.11c0-1.16-.8-1.67-1.6-1.67-1.09,0-2.25,1.09-2.76,2.18v6.6h1.81v.65h-6.17v-.65h1.96v-8.7h-1.89v-.65h1.81c1.09,0,2.03,0,2.39-.51v1.96h.07c.94-1.16,2.25-1.96,3.7-1.96,2.32,0,3.12,1.6,3.12,2.97v6.89h1.89v.65h-5.8v-.65h0Z" style="fill: #838f8c; fill-rule: evenodd;"/>
  <path d="M145.06,18.43c1.38.15,1.96,1.02,1.96,1.89,0,1.23-1.02,1.89-2.18,1.89-2.1,0-2.9-1.89-3.05-3.12h-.51l.07,3.63h.51c.07-.36.15-.51.44-.51.51,0,1.09.65,2.61.65,2.25,0,3.63-1.38,3.63-3.48,0-1.52-.87-2.9-2.83-3.12l-1.16-.22c-1.45-.29-2.03-.8-2.03-1.67s.73-1.6,2.03-1.6c1.52,0,2.39.87,2.61,2.32h.51v-2.9h-.51c0,.22-.07.44-.36.44-.44,0-1.02-.58-2.25-.58-1.81,0-3.19,1.23-3.19,3.05,0,2.18,1.45,3.05,2.97,3.19l.73.15h0Z" style="fill: #838f8c; fill-rule: evenodd;"/>
  <path d="M155.73,20.9c-.29.44-.8,1.02-1.52,1.02-.65,0-1.23-.29-1.23-1.23v-7.54h2.76v-.65h-2.76v-3.41h-.44c-.36,2.39-1.74,3.41-3.7,3.41v.65h1.74v7.47c0,1.67,1.16,2.32,2.76,2.32s2.32-.8,2.76-1.45l-.36-.58h0Z" style="fill: #838f8c; fill-rule: evenodd;"/>
  <path d="M172.56,38.96h-2.25v.73h6.75v-.73h-1.81v-12.11c-.58.58-1.45.65-2.39.65h-2.25v.73h1.96v10.74h0Z" style="fill: #838f8c; fill-rule: evenodd;"/>
  <path d="M129.83,38.96h-2.25v.73h6.82v-.73h-1.89v-12.11c-.51.58-1.45.65-2.32.65h-2.25v.73h1.89v10.74h0Z" style="fill: #838f8c; fill-rule: evenodd;"/>
  <path d="M180.39,38.96h-2.18v.73h6.89v-.73h-2.03v-10.81h4.86v10.81h-1.81v.73h6.67v-.73h-2.18v-12.11c-.51.58-1.52.65-2.39.65h-5.15v-4.06c0-2.76,1.02-4.93,3.99-4.93,1.23,0,2.1.51,2.1,1.02,0,.36-.29.51-.58.65-.36.15-.65.58-.65,1.09,0,.8.73,1.31,1.31,1.31.94,0,1.6-.73,1.6-1.81,0-1.31-1.31-2.97-3.99-2.97-4.79,0-6.46,3.99-6.46,7.69v2.03h-2.47v.65h2.47v10.81h0Z" style="fill: #838f8c; fill-rule: evenodd;"/>
  <path d="M108.43,30.76c2.97.65,4.28,2.47,4.28,4.43,0,2.32-1.74,4.21-4.5,4.21s-5.44-2.32-5.88-7.04h-.73v7.54h.73c.07-.51.29-.87.87-.87,1.09,0,2.25,1.16,5.08,1.16,4.06,0,6.31-2.54,6.31-6.46,0-3.05-1.45-5.3-5.37-6.31l-1.52-.36c-3.48-.8-4.5-2.47-4.5-4.13,0-2.32,1.74-3.84,3.84-3.84,3.26,0,5.15,2.76,5.59,6.09h.8v-6.24h-.73c-.07.36-.29.8-.87.8-1.02,0-1.81-1.52-4.86-1.52s-5.44,2.32-5.44,5.73c0,3.63,1.74,5.59,5.44,6.46l1.45.36h0Z" style="fill: #838f8c; fill-rule: evenodd;"/>
  <path d="M163.49,37.36c0,2.1,1.38,2.83,3.19,2.83,2.18,0,2.9-1.23,3.19-1.96l-.51-.44c-.36.65-.94,1.38-1.89,1.38-.73,0-1.31-.36-1.31-1.52v-9.5h3.19v-.65h-3.19v-3.77h-.51c-.44,2.9-1.81,3.77-4.43,3.77v.65h2.25v9.21h0Z" style="fill: #838f8c; fill-rule: evenodd;"/>
  <path d="M154.93,38.96h1.96v-9.07c0-1.45-.73-2.03-1.74-2.03-1.74,0-3.05,1.74-3.7,2.61v8.49h2.1v.73h-6.89v-.73h2.1v-10.81h-2.1v-.65h2.25c1.31,0,1.96,0,2.47-.65v2.39h.07c.58-.73,1.96-2.39,4.35-2.39,2.54,0,3.84,1.67,3.84,3.7v8.41h2.1v.73h-6.82v-.73h0Z" style="fill: #838f8c; fill-rule: evenodd;"/>
  <path d="M126.06,35.69c-.29,1.52-1.52,3.48-3.63,3.48s-3.05-1.23-3.05-3.99v-2.83c0-2.68,1.02-4.64,3.19-4.64,1.31,0,2.1.65,2.1,1.16,0,.29-.22.44-.36.65-.22.22-.36.51-.36.94,0,.58.44,1.23,1.31,1.23.8,0,1.45-.65,1.45-1.67,0-1.45-1.74-3.05-4.35-3.05-3.34,0-5.95,2.61-5.95,6.6,0,3.63,1.81,6.6,5.73,6.6,2.61,0,4.35-2.18,4.64-4.5h-.73Z" style="fill: #838f8c; fill-rule: evenodd;"/>
  <path d="M202.66,35.62c-.29,1.6-1.52,3.55-3.55,3.55s-3.05-1.23-3.05-4.06v-2.76c0-2.76.94-4.72,3.19-4.72,1.31,0,2.03.73,2.03,1.23,0,.29-.15.44-.36.65-.15.22-.36.44-.36.87,0,.65.51,1.23,1.31,1.23s1.45-.65,1.45-1.67c0-1.45-1.67-2.97-4.35-2.97-3.34,0-5.88,2.61-5.88,6.6,0,3.63,1.81,6.6,5.66,6.6,2.68,0,4.35-2.18,4.72-4.57h-.8Z" style="fill: #838f8c; fill-rule: evenodd;"/>
  <path d="M143.11,31.49c0,.15-.07.22-.22.22h-4.64v-.87c0-1.96,1.02-3.19,2.47-3.19,1.52,0,2.39,1.16,2.39,3.19v.65h0ZM144.92,35.62c-.36,1.74-1.6,3.55-3.63,3.55s-3.05-1.23-3.05-3.77v-2.9h7.4c.15,0,.22-.07.22-.29v-.44c0-1.89-1.6-4.79-5.15-4.79-3.12,0-5.44,3.12-5.44,6.6,0,4.13,2.32,6.6,5.51,6.6,2.54,0,4.43-1.81,4.86-4.57h-.73Z" style="fill: #838f8c; fill-rule: evenodd;"/>
</svg>
