<?xml version="1.0" encoding="UTF-8"?>
<svg id="Layer_1" data-name="Layer 1" xmlns="http://www.w3.org/2000/svg" viewBox="0 0 305 46">
  <path d="M54.75,41.31h-4.99v-15.16h4.99c5.28,0,8.12,2.58,8.12,7.57s-2.35,7.59-8.12,7.59h0ZM54.39,28.46h-1.64v10.55h1.59c4.13.08,5.45-1.93,5.45-5.26,0-3.67-1.91-5.28-5.41-5.28M67.43,34.92c.08-1.39.75-2.66,2.33-2.66s2.27,1.13,2.2,2.66h-4.53ZM69.84,30.47c-3.98,0-5.37,2.83-5.37,5.49,0,3.16,1.59,5.53,4.99,5.64,2.71.02,5.09-.8,5.26-3.75h-2.76c0,1.2-.97,1.97-2.1,1.97-1.91,0-2.52-1.4-2.54-3.12l7.63-.02c.23-3.14-1.13-6.2-5.12-6.2M87.23,41.31h-2.85l-.02-1.72c-.48,1.36-1.8,2.06-3.44,2.06-1.93,0-3.75-1.17-3.77-3.98v-6.81h2.89v6.42c-.02,1.51.57,2.35,1.99,2.37,1.28,0,2.33-.73,2.33-2.77v-6.02h2.87v10.46M90.94,30.89v-1.66l2.79-1.47v3.12h2.66v2.03h-2.66v5.05c0,1.03.36,1.62,1.4,1.66.4,0,.75.04,1.28-.1v1.8c-1.36.19-2.94.55-4.24-.15-.99-.52-1.24-1.44-1.24-2.91v-5.35h-2.24v-2.03h2.24M107.25,36.81c.46.92.44,2.14-.12,2.98-.99,1.51-3.13,1.89-4.78,1.85-2.35-.15-4.44-.76-4.34-3.57h2.85c-.02,1.22.73,1.66,1.83,1.7,1.05,0,2.09-.36,2.09-1.32,0-.78-.73-1.11-1.68-1.32-1.07-.23-1.84-.34-3.04-.82-.96-.46-1.91-1.24-1.91-2.71,0-1.22.94-2.14,2.18-2.64.84-.36,1.87-.46,2.75-.46,1.99,0,4.15.69,4.02,3.21h-2.68c0-.38-.08-.8-.4-1.05-.59-.52-2.39-.59-2.96.27-.63,1.47,1.32,1.57,3.48,2.16,1.36.31,2.28.88,2.7,1.72M114.4,30.45c2.28,0,4.65,1.05,4.65,3.92l-2.81-.02c0-1.34-.73-2.16-2.12-2.1-.37.03-.73.14-1.05.31-.86.5-1.13,1.91-1.13,3.31,0,1.49.36,2.93,1.01,3.46.44.42,1.21.54,1.88.42,1.11-.19,1.45-1.28,1.47-2.22l2.75-.02c.04,3-2.41,4.13-4.97,4.09-3.42-.12-4.99-2.35-4.99-5.64s1.91-5.51,5.31-5.51M121.27,26.18h2.9v6.33c.75-1.34,1.88-1.93,3.42-1.93,1.93,0,3.75,1.45,3.75,3.52v7.21h-2.85v-6.42c0-1.42-.61-2.37-1.97-2.37-1.28,0-2.37.84-2.37,2.77v6.02h-2.87v-15.13M136.54,34.92c.08-1.39.75-2.66,2.33-2.66s2.26,1.13,2.2,2.66h-4.53ZM138.95,30.47c-3.98,0-5.37,2.83-5.37,5.49,0,3.16,1.59,5.53,4.99,5.64,2.71.02,5.09-.8,5.26-3.75h-2.77c0,1.2-.96,1.97-2.1,1.97-1.91,0-2.51-1.4-2.54-3.12l7.63-.02c.23-3.14-1.13-6.2-5.12-6.2M161.91,40.87c-.98.31-2.24.44-3.61.44h-5.47v-15.11h5.83c2.6,0,5.33.82,5.43,3.73.06,1.84-1.2,3.02-2.77,3.54,1.22.31,2.2.67,2.87,1.8.59,1.01.63,2.35.15,3.46-.47,1.02-1.36,1.8-2.43,2.14h0ZM158.66,28.46h-2.96v3.92h3c1.57,0,2.39-.65,2.39-1.93,0-1.19-.94-1.99-2.43-1.99h0ZM158.95,34.65l-3.25-.02v4.44h3.15c2.09,0,2.77-1.03,2.77-2.31,0-.99-.71-2.14-2.66-2.12M171.05,39.8c-1.07-.08-1.7-.61-1.7-1.61.02-2.2,2.81-1.97,4.25-1.97.06,1.74-.08,3.54-2.56,3.58h0ZM176.35,33.72c0-2.14-2.31-3.21-4.97-3.18-2.54.04-4.38.86-4.42,3.31h2.79c-.06-1.13.71-1.72,1.74-1.74,1.55,0,2.24.71,2.09,2.47-1.53.08-3.58-.02-5.12.69-1.11.53-1.97,1.51-1.97,3.08,0,2.01,1.4,3.23,3.46,3.29,1.47.15,3.14-.5,3.79-1.87l.1,1.53h2.5v-7.59M179.14,30.85h2.9v1.68c.75-1.36,2.14-1.95,3.69-1.95,1.74,0,3.52,1.01,3.52,3.52v7.21h-2.89v-6.42c.02-1.36-.65-2.37-1.97-2.37s-2.37.84-2.37,2.77v6.02h-2.87v-10.46M199.38,41.31l-4.4-5.99,3.98-4.47h3.4l-4.13,4.36,4.86,6.1h-3.71s0,0,0,0ZM192.04,26.18h2.85v15.14h-2.85v-15.14ZM218.43,4.33h36.81v36.96h-36.81V4.33ZM240.8,13.08l-14.39,19.3h6.5l14.44-19.3h-6.55ZM223.55,36.17h26.57V9.44h-26.57v26.73Z" style="fill: #838f8c;"/>
</svg>
