<?xml version="1.0" encoding="UTF-8"?>
<svg id="Layer_1" data-name="Layer 1" xmlns="http://www.w3.org/2000/svg" viewBox="0 0 305 46">
  <path d="M104.15,3.15v16.67h2.94v-5.64l3.49,5.64h3.65l-4.29-6.19,3.97-5.16h-3.49l-3.33,4.76V3.15h-2.94ZM159.57,3.15v16.36c1.27.4,2.62.56,4.29.56,3.89,0,6.19-2.62,6.19-6.43,0-3.33-1.51-5.32-4.21-5.32-1.59,0-2.86.79-3.41,1.98h0c.08-.64.16-1.51.16-2.22V3.15h-3.02ZM211.09,3.39c-1.03,0-1.83.79-1.83,1.75s.79,1.75,1.83,1.75,1.83-.79,1.83-1.75c.08-.95-.79-1.75-1.83-1.75ZM186.24,4.18l-2.94.79v3.49h-1.98v2.3h1.98v5.72c0,2.62.79,3.57,3.33,3.57.79,0,1.67-.16,2.38-.32v-2.3c-.4.08-.95.16-1.43.16-1.03,0-1.35-.4-1.35-1.83v-5h2.78v-2.3h-2.78v-4.29ZM126.78,4.26c-1.51,0-2.86,0-4.13.08v15.48h3.02v-5.48c.4.08.71.08,1.03.08,3.73,0,6.03-2.38,6.03-5.32-.08-3.1-2.14-4.84-5.95-4.84ZM31.66,4.34v15.48h2.94v-5.56c0-1.83-.08-4.29-.16-5.56.48,1.03,1.03,2.14,1.67,3.33l4.53,7.78h3.89V4.42h-2.94v4.76c0,1.91.08,4.6.16,6.19-.56-1.19-1.19-2.46-1.91-3.65l-4.37-7.38h-3.81ZM73.74,4.34l4.84,10v5.4h3.02v-5.48l4.92-9.92h-3.18l-1.98,4.13c-.48.95-.87,1.98-1.27,2.86h-.08c-.32-.79-.64-1.67-1.03-2.54l-2.06-4.45h-3.18ZM126.62,6.72c1.98,0,2.94.95,2.94,2.54,0,1.67-1.27,2.7-3.1,2.7-.24,0-.56,0-.87-.08v-5.16h1.03ZM51.75,8.15c-3.41,0-5.4,2.54-5.4,6.03,0,3.97,2.06,5.8,5.72,5.8,1.43,0,2.86-.24,4.05-.71l-.24-2.22c-.95.48-2.22.71-3.33.71-2.14,0-3.18-1.03-3.18-3.18h7.07c.08-.48.08-.95.08-1.35,0-2.78-1.43-5.08-4.76-5.08ZM102.72,8.15c-1.75,0-2.78,1.19-3.26,2.54h-.08c.16-.79.24-1.75.24-2.3h-2.78v11.43h2.94v-4.6c0-3.18,1.03-4.53,3.18-4.05l.16-2.86c-.16-.16-.32-.16-.4-.16ZM139.48,8.15c-1.75,0-2.78,1.19-3.26,2.54h-.08c.16-.79.24-1.75.24-2.3h-2.78v11.43h2.94v-4.6c0-3.18,1.03-4.53,3.18-4.05l.16-2.86c-.16-.16-.24-.16-.4-.16ZM145.04,8.15c-3.41,0-5.4,2.54-5.4,6.03,0,3.97,1.98,5.8,5.64,5.8,1.43,0,2.86-.24,4.13-.71l-.24-2.22c-.95.48-2.22.71-3.33.71-2.14,0-3.18-1.03-3.18-3.18h7.07c.08-.48.08-.95.08-1.35,0-2.78-1.43-5.08-4.76-5.08ZM155.36,8.15c-3.26,0-4.84,1.67-4.84,3.65,0,3.89,4.6,2.7,4.6,4.76,0,.71-.71,1.19-1.91,1.19-.87,0-1.75-.16-2.46-.32l-.08,2.38c.71.08,1.59.24,2.38.24,3.1,0,5.08-1.51,5.08-3.73,0-3.65-4.68-2.86-4.68-4.68,0-.71.56-1.19,1.67-1.19.71,0,1.43.16,2.06.32l.08-2.3c-.56-.16-1.27-.32-1.91-.32ZM195.37,8.15c-3.41,0-5.4,2.54-5.4,6.03,0,3.97,1.98,5.8,5.64,5.8,1.43,0,2.86-.24,4.13-.71l-.24-2.22c-.95.48-2.22.71-3.33.71-2.14,0-3.18-1.03-3.18-3.18h7.07c.08-.48.08-.95.08-1.35.08-2.78-1.43-5.08-4.76-5.08ZM208,8.15c-1.75,0-2.78,1.19-3.26,2.54h-.08c.16-.79.24-1.75.24-2.3h-2.78v11.43h2.94v-4.6c0-3.18,1.03-4.53,3.18-4.05l.16-2.86c-.16-.16-.32-.16-.4-.16ZM219.35,8.15c-1.51,0-2.94.32-4.13.71l.24,2.46c.95-.56,2.38-.87,3.41-.87,1.67,0,2.22.64,2.22,1.83v.64c-3.89,0-6.67,1.43-6.67,4.13,0,1.83,1.19,3.02,3.26,3.02,1.75,0,3.1-.87,3.65-2.14h0c-.08.64-.16,1.27-.16,1.91h2.78c-.08-.95-.08-1.98-.08-2.94v-4.76c.16-2.46-.87-3.97-4.53-3.97ZM232.61,8.15c-1.83,0-3.18.95-3.89,2.3h0c.08-.64.16-1.51.16-2.06h-2.78v11.43h2.94v-5.48c0-1.98,1.19-3.65,2.7-3.65,1.11,0,1.43.71,1.43,1.91v7.22h2.94v-7.94c-.08-2.06-.87-3.73-3.49-3.73ZM89.94,8.23c-3.49,0-5.8,2.54-5.8,6.03,0,4.05,2.06,5.72,5.32,5.72s5.8-2.54,5.8-6.11c0-3.89-2.06-5.64-5.32-5.64ZM209.66,8.39v11.43h2.94v-11.35h-2.94v-.08ZM57.07,8.47l3.49,11.35h3.02l1.43-4.76c.32-.95.56-1.83.79-2.86h0c.24.95.4,1.75.64,2.54l1.67,5.08h3.18l3.57-11.35h-3.02l-1.27,4.45c-.32,1.11-.56,2.14-.79,3.33h-.08c-.24-1.11-.48-2.14-.87-3.41l-1.43-4.29h-2.86l-1.35,4.45c-.32,1.03-.64,2.06-.87,3.33h0c-.32-1.19-.64-2.3-.87-3.41l-1.19-4.29h-3.18v-.16ZM169.81,8.47l4.21,11.35-.4,1.11c-.64,1.67-1.27,2.14-2.22,2.14-.56,0-1.03-.08-1.59-.24l-.16,2.54c.48.08,1.11.24,1.59.24,2.62,0,3.81-1.11,5.16-4.6l4.68-12.39h-3.18l-1.35,3.89c-.4,1.11-.87,2.54-1.11,3.57h0c-.24-1.03-.56-2.14-.87-3.1l-1.51-4.37h-3.26v-.16ZM51.67,10.38c1.27,0,2.06.87,1.98,2.3h-4.21c.16-1.43.95-2.3,2.22-2.3ZM144.88,10.38c1.27,0,2.06.87,1.98,2.3h-4.21c.16-1.43,1.03-2.3,2.22-2.3ZM195.29,10.38c1.27,0,2.06.87,1.98,2.3h-4.21c.16-1.43,1.03-2.3,2.22-2.3ZM164.97,10.61c1.35,0,1.91,1.11,1.91,3.18,0,2.78-1.19,3.81-2.86,3.81-.64,0-1.11-.08-1.51-.24v-3.18c0-1.75.95-3.57,2.46-3.57ZM89.7,10.69c1.75,0,2.46,1.19,2.46,3.33,0,2.3-1.11,3.49-2.54,3.49-1.67,0-2.54-1.19-2.54-3.49s1.35-3.33,2.62-3.33ZM113.91,12.84v2.3h5.64v-2.3h-5.64ZM221.1,14.74v.24c0,1.35-1.03,2.7-2.46,2.7-.87,0-1.35-.48-1.35-1.19,0-.79.71-1.75,3.81-1.75Z" style="fill: #838f8c;"/>
  <path d="M173.7,26.73c-1.75,0-2.7.95-2.7,2.86v.48h-1.43v.95h1.43v5.95h1.27v-5.95h1.91v-.95h-1.83v-.56c0-1.19.4-1.75,1.43-1.75.32,0,.71,0,1.03.16l.08-1.03c-.4-.08-.79-.16-1.19-.16ZM38.17,26.81v10.16h1.27v-3.33c0-1.51.79-2.7,1.98-2.7.95,0,1.19.56,1.19,1.51v4.45h1.27v-4.84c0-1.19-.48-2.22-2.06-2.22-1.19,0-1.98.64-2.46,1.59h0c.08-.4.16-.95.16-1.35v-3.26h-1.35ZM157.82,26.81v10.16h1.27v-10.16h-1.27ZM192.83,26.81v10.16h1.27v-10.16h-1.27ZM214.98,26.81v10c.71.16,1.43.24,2.38.24,2.22,0,3.65-1.43,3.65-3.89,0-2.14-.87-3.26-2.54-3.26-1.03,0-1.91.56-2.3,1.59h0c.08-.32.16-.87.16-1.27v-3.33l-1.35-.08ZM253.57,26.81v3.26c-.4,0-.79-.08-1.19-.08-2.22,0-3.57,1.43-3.57,3.89,0,1.98.87,3.26,2.54,3.26,1.11,0,1.98-.64,2.3-1.59h.08c-.08.4-.08,1.03-.08,1.43h1.19v-10.16h-1.27ZM292.87,26.81v10.16h1.27v-10.16h-1.27ZM296.13,26.81v10.16h1.27v-10.16h-1.27ZM71.83,27.29c-.48,0-.79.4-.79.79,0,.48.4.79.79.79.48,0,.87-.4.87-.79s-.4-.79-.87-.79ZM98.27,27.29c-.48,0-.87.4-.87.79,0,.48.4.79.87.79s.87-.4.87-.79-.4-.79-.87-.79ZM143.77,27.29c-.48,0-.87.4-.87.79,0,.48.4.79.87.79s.87-.4.87-.79-.4-.79-.87-.79ZM223,27.29c-.48,0-.87.4-.87.79,0,.48.4.79.87.79s.87-.4.87-.79c-.08-.4-.4-.79-.87-.79ZM102.4,27.45l-1.27.32v2.22h-1.43v.95h1.43v3.97c0,1.51.4,2.06,1.83,2.06.48,0,.95-.08,1.35-.16v-1.03c-.32.08-.64.16-.95.16-.79,0-1.03-.32-1.03-1.43v-3.57h1.91v-.95h-1.91v-2.54h.08ZM147.9,27.45l-1.27.32v2.22h-1.43v.95h1.43v3.97c0,1.51.4,2.06,1.83,2.06.48,0,.95-.08,1.35-.16v-1.03c-.32.08-.64.16-.95.16-.79,0-1.03-.32-1.03-1.43v-3.57h1.98v-.95h-1.98v-2.54h.08ZM181.88,27.53c-3.18,0-4.6,2.14-4.6,5,0,2.62,1.27,4.53,4.29,4.53.95,0,1.83-.16,2.54-.48l-.16-1.11c-.56.32-1.43.48-2.14.48-2.22,0-3.18-1.35-3.18-3.65,0-2.06.95-3.73,3.1-3.73.71,0,1.43.08,2.14.32l.16-1.19c-.64-.08-1.35-.16-2.14-.16ZM263.49,27.53c-3.18,0-4.6,2.14-4.6,5,0,2.62,1.27,4.53,4.29,4.53.95,0,1.83-.16,2.54-.48l-.16-1.11c-.56.32-1.43.48-2.14.48-2.22,0-3.18-1.35-3.18-3.65,0-2.06.95-3.73,3.1-3.73.71,0,1.43.08,2.14.32l.16-1.19c-.64-.08-1.35-.16-2.14-.16ZM30.39,27.6v1.11h2.7v8.34h1.27v-8.34h2.7v-1.11h-6.67ZM114.23,27.6v9.45h1.27v-4.37h4.84v4.37h1.27v-9.45h-1.27v3.97h-4.84v-3.97h-1.27ZM55.16,27.6v6.19c0,1.67.56,3.33,3.49,3.33,2.46,0,3.81-1.27,3.81-3.73v-5.8h-1.27v5.88c0,1.91-.79,2.54-2.46,2.54-1.91,0-2.3-1.03-2.3-2.3v-6.11h-1.27ZM67.63,29.91c-1.19,0-2.06.64-2.46,1.59h0c.08-.4.08-1.03.08-1.43h-1.19v6.91h1.27v-3.33c0-1.51.79-2.7,1.98-2.7.95,0,1.19.56,1.19,1.51v4.45h1.27v-4.84c-.08-1.11-.56-2.14-2.14-2.14h0ZM90.57,29.91c-1.03.08-1.67.95-1.91,1.75h0c.08-.56.16-1.19.16-1.67h-1.19v6.91h1.27v-2.78c0-2.22.71-3.26,2.14-3.02l.08-1.19h-.56ZM139.48,29.91c-1.11,0-1.98.64-2.38,1.59h0c.08-.4.08-1.03.08-1.43h-1.19v10.4h1.27v-3.41c.4.08.71.08,1.19.08,2.22,0,3.57-1.43,3.57-3.89-.08-2.14-.95-3.33-2.54-3.33ZM153.69,29.91c-.95,0-1.75.24-2.46.48l.16,1.11c.64-.4,1.43-.56,2.06-.56,1.11,0,1.51.56,1.51,1.51v.48c-2.62,0-4.21.95-4.21,2.46,0,1.11.79,1.75,1.91,1.75s2.06-.64,2.38-1.51h0c-.08.4-.08.87-.08,1.35h1.19v-4.76c.08-1.35-.48-2.3-2.46-2.3ZM206.81,29.91c-1.11,0-1.98.64-2.46,1.59h0c.08-.4.08-1.03.08-1.43h-1.27v6.91h1.27v-3.33c0-1.59.87-2.7,1.98-2.7.95,0,1.11.71,1.11,1.59v4.45h1.27v-3.33c0-1.67.95-2.7,1.98-2.7.95,0,1.11.64,1.11,1.59v4.45h1.27v-4.76c0-1.59-.71-2.3-2.06-2.3s-2.06.95-2.38,1.59c0-.56-.4-1.59-1.91-1.59ZM227.93,29.91c-.95,0-1.75.24-2.46.48l.16,1.11c.64-.4,1.43-.56,2.06-.56,1.11,0,1.51.56,1.51,1.51v.48c-2.62,0-4.21.95-4.21,2.46,0,1.11.79,1.75,1.91,1.75s2.06-.64,2.38-1.51h0c-.08.4-.08.87-.08,1.35h1.19v-4.76c.08-1.35-.48-2.3-2.46-2.3ZM237.61,29.91c-.95,0-1.75.24-2.46.48l.16,1.11c.64-.4,1.43-.56,2.06-.56,1.19,0,1.51.56,1.51,1.51v.48c-2.62,0-4.21.95-4.21,2.46,0,1.11.79,1.75,1.91,1.75s2.06-.64,2.38-1.51h0c-.08.4-.08.87-.08,1.35h1.27c0-.64-.08-1.35-.08-1.98v-2.78c.16-1.35-.4-2.3-2.46-2.3ZM245.39,29.91c-1.19,0-2.06.64-2.46,1.59h0c.08-.4.08-1.03.08-1.43h-1.19v6.91h1.27v-3.33c0-1.51.79-2.7,1.98-2.7.95,0,1.19.56,1.19,1.51v4.45h1.27v-4.84c-.08-1.11-.56-2.14-2.14-2.14ZM277.23,29.91c-1.11.08-1.67.95-1.91,1.75h-.08c.08-.56.16-1.19.16-1.67h-1.19v6.91h1.27v-2.78c0-2.22.71-3.26,2.14-3.02l.08-1.19h-.48ZM282.39,29.91c-1.19,0-2.06.64-2.46,1.59h0c.08-.4.08-1.03.08-1.43h-1.19v6.91h1.27v-3.33c0-1.51.87-2.7,1.98-2.7.95,0,1.19.56,1.19,1.51v4.45h1.27v-4.84c-.08-1.11-.56-2.14-2.14-2.14ZM48.25,29.99c-1.98,0-3.1,1.51-3.1,3.65,0,2.46,1.19,3.57,3.33,3.57.87,0,1.67-.16,2.38-.4l-.08-1.03c-.56.24-1.35.4-2.06.4-1.51,0-2.3-.79-2.22-2.62h4.53v-.64c.08-1.67-.79-2.94-2.78-2.94ZM83.35,29.99c-1.98,0-3.1,1.51-3.1,3.65,0,2.46,1.19,3.57,3.33,3.57.87,0,1.67-.16,2.38-.4l-.16-1.11c-.56.24-1.35.4-2.06.4-1.51,0-2.3-.79-2.22-2.62h4.6v-.64c0-1.59-.79-2.86-2.78-2.86ZM94.38,29.99c-1.83,0-2.78.87-2.78,2.06,0,2.46,3.26,1.51,3.26,3.02,0,.64-.64,1.03-1.51,1.03-.56,0-1.11-.08-1.51-.24v1.11c.4.08.95.16,1.43.16,1.83,0,2.94-.95,2.94-2.22,0-2.3-3.26-1.51-3.26-3.02,0-.64.48-.95,1.35-.95.48,0,.95.08,1.43.24v-1.03c-.4-.16-.87-.16-1.35-.16ZM126.14,29.99c-2.06,0-3.41,1.59-3.41,3.65,0,2.46,1.27,3.49,3.1,3.49,2.06,0,3.41-1.59,3.41-3.73.08-2.46-1.27-3.41-3.1-3.41ZM132.89,29.99c-1.83,0-2.78.87-2.78,2.06,0,2.46,3.26,1.51,3.26,3.02,0,.64-.64,1.03-1.59,1.03-.56,0-1.11-.08-1.51-.24l-.08,1.11c.4.08.95.16,1.51.16,1.83,0,2.94-.95,2.94-2.22,0-2.3-3.26-1.51-3.26-3.02,0-.64.48-.95,1.43-.95.48,0,.95.08,1.43.24v-1.03c-.4-.16-.87-.16-1.35-.16ZM166.24,29.99c-2.06,0-3.41,1.59-3.41,3.65,0,2.46,1.27,3.49,3.1,3.49,2.06,0,3.41-1.59,3.41-3.73.08-2.46-1.35-3.41-3.1-3.41ZM188.31,29.99c-2.06,0-3.41,1.59-3.41,3.65,0,2.46,1.27,3.49,3.1,3.49,2.06,0,3.41-1.59,3.41-3.73.08-2.46-1.27-3.41-3.1-3.41ZM269.93,29.99c-2.14,0-3.41,1.59-3.41,3.65,0,2.46,1.27,3.49,3.1,3.49,2.06,0,3.41-1.59,3.41-3.73.08-2.46-1.27-3.41-3.1-3.41ZM288.74,29.99c-1.98,0-3.1,1.51-3.1,3.65,0,2.46,1.19,3.57,3.33,3.57.87,0,1.67-.16,2.38-.4l-.08-1.03c-.56.24-1.35.4-2.06.4-1.51,0-2.3-.79-2.22-2.62h4.53v-.64c0-1.67-.87-2.94-2.78-2.94ZM71.2,30.07v6.91h1.27v-6.91h-1.27ZM73.34,30.07l2.62,6.91h1.27l2.7-6.91h-1.35l-1.51,4.21c-.16.4-.32.87-.4,1.27h0c-.08-.4-.24-.87-.4-1.35l-1.43-4.13h-1.51ZM97.64,30.07v6.91h1.27v-6.91h-1.27ZM104.78,30.07l2.62,6.91-.32.79c-.48,1.35-.87,1.67-1.67,1.67-.32,0-.56,0-.87-.16l-.08,1.11c.32,0,.64.08.87.08,1.51,0,2.22-.71,3.02-2.86l2.94-7.62h-1.35l-1.11,3.18c-.24.79-.56,1.67-.71,2.14h-.08c-.16-.56-.32-1.11-.56-1.75l-1.35-3.57h-1.35v.08ZM143.13,30.07v6.91h1.27v-6.91h-1.27ZM195.85,30.07v4.84c0,1.19.48,2.22,2.06,2.22,1.19,0,2.06-.64,2.46-1.59h0c-.08.4-.08,1.03-.08,1.43h1.19v-6.91h-1.19v3.33c0,1.51-.87,2.7-1.98,2.7-.87,0-1.19-.56-1.19-1.51v-4.53h-1.27ZM222.37,30.07v6.91h1.27v-6.91h-1.27ZM48.25,30.86c.95,0,1.59.71,1.59,1.67h-3.26c.08-.95.71-1.67,1.67-1.67ZM83.27,30.86c.95,0,1.59.71,1.59,1.67h-3.26c.16-.95.79-1.67,1.67-1.67ZM288.66,30.86c.95,0,1.59.71,1.59,1.67h-3.26c.08-.95.71-1.67,1.67-1.67ZM252.38,30.94c.4,0,.79,0,1.27.16v2.3c0,1.19-.64,2.7-1.91,2.7-1.03,0-1.51-.87-1.51-2.3-.08-2.06.79-2.86,2.14-2.86ZM126.06,31.02c1.27,0,1.91.95,1.91,2.46,0,1.75-.87,2.62-1.91,2.62-1.27,0-1.98-.95-1.98-2.62s.95-2.46,1.98-2.46ZM138.92,31.02h.24c1.03,0,1.51.87,1.51,2.3,0,1.98-.87,2.78-2.22,2.78-.48,0-.87-.08-1.27-.16v-2.3c0-1.11.64-2.46,1.75-2.62ZM166.16,31.02c1.27,0,1.91.95,1.91,2.46,0,1.75-.87,2.62-1.91,2.62-1.27,0-1.98-.95-1.98-2.62s.95-2.46,1.98-2.46ZM188.23,31.02c1.27,0,1.91.95,1.91,2.46,0,1.75-.87,2.62-1.91,2.62-1.27,0-1.98-.95-1.98-2.62s.95-2.46,1.98-2.46ZM217.92,31.02h.24c1.03,0,1.59.87,1.59,2.3,0,1.98-.87,2.78-2.22,2.78-.48,0-.87-.08-1.19-.16v-2.3c-.08-1.11.48-2.46,1.59-2.62ZM269.85,31.02c1.27,0,1.91.95,1.91,2.46,0,1.75-.87,2.62-1.91,2.62-1.27,0-1.98-.95-1.98-2.62s.95-2.46,1.98-2.46ZM155.04,33.8v.16c0,1.11-.79,2.22-1.91,2.22-.64,0-1.03-.4-1.03-.95-.08-.71.48-1.43,2.94-1.43ZM229.27,33.8v.16c0,1.11-.79,2.22-1.91,2.22-.64,0-1.03-.4-1.03-.95-.08-.71.48-1.43,2.94-1.43ZM238.96,33.8v.16c0,1.11-.71,2.22-1.91,2.22-.64,0-1.11-.4-1.11-.95.08-.71.56-1.43,3.02-1.43Z" style="fill: #838f8c;"/>
  <polyline points="7.6 19.03 7.6 19.74 23.64 19.74 23.64 4.34 22.85 4.34 22.85 19.03 7.6 19.03" style="fill: #838f8c;"/>
  <polyline points="7.6 27.6 23.64 27.6 23.64 42.85 20.86 42.85 20.86 30.38 7.6 30.38 7.6 27.6" style="fill: #838f8c;"/>
</svg>
