<?xml version="1.0" encoding="UTF-8"?>
<svg id="Layer_1" data-name="Layer 1" xmlns="http://www.w3.org/2000/svg" viewBox="0 0 305 46">
  <path d="M135.62,24.67c-.11.16-.05.36-.05.52v7.94c0,.74-.08,1.45-.3,2.16-.66,2.27-2.57,3.64-4.95,3.48-2.93-.19-4.6-1.97-4.79-5.06-.03-.3-.03-.63-.03-.93V12.35c0-2.13.79-3.8,2.82-4.62,2.08-.85,4.05-.55,5.75.99.93.82,1.59,1.92,2.33,2.9,2.27,3.09,4.68,6.1,6.81,9.3.22.33.41.66.74.96v-9c0-1.18.19-2.3.79-3.31,1.09-1.86,2.82-2.46,4.84-2.24,2.38.22,3.97,1.83,4.3,4.24.08.55.11,1.09.11,1.64v20.47c0,2.11-.74,3.78-2.71,4.65-2.11.9-4.13.57-5.86-.99-1.07-.96-1.86-2.19-2.76-3.34-2.38-3.04-4.93-5.97-6.95-9.28,0-.03-.03-.03-.08-.05h0ZM209.42,24.72v.57c0,2.87-.03,5.72-.05,8.59,0,.82-.25,1.59-.6,2.3-.85,1.72-2.65,2.71-4.65,2.54-2.85-.22-4.54-2-4.73-4.9,0-.16-.03-.33-.03-.49,0-7.17-.03-14.34,0-21.51,0-1.83.88-3.23,2.52-4.02,1.86-.88,3.67-.74,5.42.38.52.33.96.77,1.31,1.23,2.76,3.72,5.61,7.36,8.24,11.19.3.44.57.88.93,1.45v-9.36c0-1.37.3-2.68,1.2-3.78,1.34-1.61,3.15-1.89,5.06-1.53,1.81.36,2.93,1.56,3.45,3.28.25.82.3,1.64.3,2.49v20.52c0,2.08-.77,3.75-2.71,4.6-2.02.88-3.97.6-5.69-.82-.27-.22-.55-.49-.77-.77-2.74-3.53-5.66-6.92-8.21-10.59-.33-.47-.63-.93-.93-1.4.03-.03,0-.03-.05,0h0ZM74.46,7.89c1.78.03,3.8-.14,5.8.25,5.55,1.04,9.82,3.83,11.77,9.28,2,5.61,1.34,10.95-2.63,15.6-2.44,2.87-5.72,4.38-9.39,4.9-3.39.49-6.81.16-10.21.22-.16,0-.33-.05-.49-.08-2.68-.47-4.54-2.65-4.54-5.36V13.37c0-3.04,2.33-5.42,5.39-5.47,1.34-.03,2.71,0,4.3,0h0ZM74.81,23.03v4.98c0,.25-.03.47.36.47,1.07-.03,2.11.05,3.17-.08,2.79-.33,4.65-2.44,4.68-5.34.03-2.85-1.83-5.03-4.62-5.39-1.04-.14-2.08-.03-3.12-.08-.38-.03-.49.11-.49.49.03,1.64.03,3.31.03,4.95h0ZM167.47,16.7c1.81-2.33,3.67-4.54,5.42-6.84,1.01-1.31,2.22-2.24,3.91-2.44,2.96-.3,5.8,2.44,5.58,5.39-.11,1.37-.66,2.52-1.51,3.56-1.72,2.05-3.48,4.08-5.23,6.1-.25.3-.25.47,0,.74,1.89,2.08,3.72,4.21,5.58,6.29,1.01,1.15,1.59,2.44,1.53,3.97-.11,3.28-3.42,5.83-6.46,4.93-1.04-.3-1.89-.93-2.57-1.78-1.97-2.41-4-4.79-5.91-7.25-.08-.11-.16-.22-.27-.36-.19.11-.11.27-.11.38,0,1.45.03,2.87-.03,4.32-.08,2.93-2.16,4.98-5.01,4.95-2.87,0-5.01-2.05-5.01-4.95-.03-7.2-.03-14.42,0-21.62.03-2.9,2.19-4.95,5.03-4.93,2.85.03,4.9,2.02,4.98,4.93.08,1.59.05,3.09.05,4.6h0ZM122.1,20.12c-.03,1.97.08,4.43-.05,6.87-.33,6.05-4.84,10.84-10.86,11.6-2.68.33-5.28.19-7.8-.85-4.49-1.83-6.95-5.25-7.63-9.99-.08-.6-.11-1.23-.14-1.86,0-4.52-.03-9,0-13.52.03-3.01,2.13-5.14,5.03-5.12,2.93.03,5.01,2.16,5.01,5.23v12.75c0,1.42.49,2.57,1.81,3.23,2.05,1.04,4.35-.41,4.57-2.79.03-.3.03-.63.03-.93v-12.42c0-2.71,1.83-4.76,4.49-5.03,2.63-.27,4.87,1.34,5.42,3.94.08.41.11.82.11,1.26.03,2.38.03,4.76.03,7.63h0ZM185.91,22.97c0-3.58-.03-7.14,0-10.73.03-2.08.9-3.69,2.85-4.52,2-.85,3.94-.63,5.61.85,1.01.88,1.53,2.08,1.53,3.39.03,7.36.05,14.69,0,22.06-.03,2.76-2.3,4.82-5.03,4.73-2.87-.08-4.93-2.08-4.95-4.9-.03-3.64,0-7.25,0-10.89h0Z" style="fill: #838f8c;"/>
  <path d="M230.84,14.52c-.03-1.23,0-2.44.27-3.64.55-2.52,2.65-3.94,5.25-3.53,2.49.38,4.08,2.44,3.83,4.95-.22,2.08-.79,4.08-1.61,5.99-.49,1.12-1.23,2.02-2.44,2.44-1.97.66-4.02-.3-4.76-2.27-.49-1.26-.52-2.6-.55-3.94h0Z" style="fill: #838f8c;"/>
</svg>
