<?xml version="1.0" encoding="UTF-8"?>
<svg id="Layer_1" data-name="Layer 1" xmlns="http://www.w3.org/2000/svg" viewBox="0 0 305 46">
  <path d="M130.93,22.83c0-11.96,9.7-21.66,21.66-21.66s21.66,9.7,21.66,21.66-9.7,21.66-21.66,21.66-21.66-9.7-21.66-21.66" style="fill: #838f8c;"/>
  <path d="M131.57,22.83c0-11.61,9.41-21.02,21.03-21.02s21.03,9.41,21.03,21.02-9.41,21.03-21.03,21.03c-11.61,0-21.03-9.41-21.03-21.03" style="fill: #fff;"/>
  <path d="M132.25,22.83c0-11.23,9.11-20.34,20.34-20.34s20.34,9.11,20.34,20.34-9.11,20.34-20.34,20.34-20.34-9.11-20.34-20.34" style="fill: #838f8c;"/>
  <path d="M140.02,22.74c0-6.92,5.61-12.53,12.53-12.53s12.53,5.61,12.53,12.53-5.61,12.52-12.53,12.52-12.53-5.61-12.53-12.52M154.53,4.28c.34.31.44.71.42,1.16-.1.32-.27.63-.55.85.34.25.69.52.74.98.1.45-.04.85-.29,1.19-.54.61-1.39.45-2.17.47l-2.05.05v-.19s-.22-4.65-.22-4.65v-.1c1.34,0,2.92-.36,4.12.23M158.34,4.94c-.36,1.04-.84,2.07-1.09,3.17-.03.29.16.56.45.63.22.12.52.14.69,0,.7-.98,1.03-2.19,1.46-3.29.55.19.99.47,1.52.67-.57,1.22-.93,2.65-1.72,3.64-.57.5-1.48.38-2.17.21-.78-.28-1.64-.78-1.88-1.66-.18-.6.65-2.67,1.11-3.91l1.62.52" style="fill: #fff;"/>
  <path d="M145.65,10.72l-1.16.77c-.43-.23-.69-.38-1-.53l-1.29,1.08c.13.32.3.7.44,1.06l-1.15,1.28-.09-.2-2.03-4.83,1.86-1.6.15.09c1.46.89,2.96,1.94,4.43,2.78l-.15.1M145.94,10.55c-.61-1.49-1.36-3.23-1.91-4.62,1.4-.56,3.43-1.95,4.67-.66.32.35.36.84.37,1.29-.08.29-.15.58-.34.82.42.51,1.19,1.1,1.73,1.61l-.07.02-1.58.35c-.56-.45-.88-.77-1.37-1.11-.21.03-.36.15-.56.24l.55,1.25-1.49.81" style="fill: #fff;"/>
  <path d="M153.15,5.1c.12.13.1.4.03.55-.23.26-.65.25-1,.21.03-.3-.08-.59-.06-.9.3.04.82-.11,1.04.13M147.34,6.31c.09.22.09.58-.1.71l-.87.37c-.22-.4-.31-.67-.46-1,.4-.15,1.1-.76,1.43-.08M153.44,7.11c.07.31-.07.63-.37.69-.28.04-.49.02-.79.03-.04-.32-.07-.74-.04-1,.4.05,1.01-.17,1.21.29" style="fill: #838f8c;"/>
  <path d="M165.33,8.82c.3.37.5.83.63,1.29-.37.2-.65.42-1,.58-.09-.55-.39-1.1-.92-1.37-.26-.15-.63-.18-.92-.08-.45.17-.84.55-1,1-.15.43.02.85.26,1.19.34.39.8.59,1.32.61-.23.38-.36.62-.58.92-.86-.12-1.67-.6-2.17-1.4-.42-.68-.45-1.72-.08-2.43.39-.78,1.15-1.29,1.98-1.4,1-.04,1.89.36,2.48,1.08" style="fill: #fff;"/>
  <path d="M142.45,10.3c-.25.23-.51.44-.79.63-.21-.5-.41-.95-.63-1.51.51.27.95.58,1.43.87" style="fill: #838f8c;"/>
  <path d="M167.97,11.94c-.4.4-.94.75-1.37,1.14.69.15,1.46.12,2.17.24.32.46.48.9.79,1.45l-2.59-.18c-.57.9-1.09,1.81-1.59,2.75-.31-.45-.54-1.03-.84-1.53.34-.68.77-1.4,1.11-2.07-.58.36-1.08.82-1.67,1.19l-.91-1.23c1.23-1.06,2.56-2,3.86-2.96l.1-.04.95,1.25M138.91,11.61c-.23.48-.54.81-.76,1.28l3.01,1.98c-.16.45-.5.89-.79,1.32l-3.09-1.93c-.28.37-.48.74-.75,1.21-.4-.27-.69-.44-1.02-.68.77-1.28,1.49-2.47,2.34-3.8l1.06.62" style="fill: #fff;"/>
  <path d="M147.38,23.39c0,.21-.02.42-.06.62-.47.94-1.22,1.77-1.35,2.85-.54.34-.98.94-1.74.74-.03.2.04.51.11.74-.61-.03-1.02.42-1.53.63-.27-.09-.34-.44-.45-.69.6-.2,1.03-.8,1.72-.79.08-.22-.04-.42-.08-.63-.85-.38-2.21,1.87-2.32-.08.85-.05,1.4-.85,2.25-.92l.03-.63c-.96-.1-1.58.89-2.54.79l-.21-.84c1.11.07,1.77-.92,2.83-.98.14-.18.16-.46.19-.71-1.15-.15-1.95,1.13-3.17.74,0,0-.04-.53-.06-.83h6.41" style="fill: #838f8c;"/>
  <path d="M148.73,23.39c.04.47-.08.94-.52,1.41-.63.75-1.28,1.69-.82,2.69.48,1.11,2.01,1.97,1.35,3.35-.36.87-1.22,1.53-1.19,2.56-.23-.1-.47-.19-.66-.37,0-1.31,1.87-2.13.98-3.51-.08.27-.1.64-.16.95-.31.8-.97,1.44-1.22,2.27-.41-.16-.84-.49-1.19-.85l.48-.29c-.05-.18-.19-.33-.32-.48-.31-.04-.51.16-.77.24-.22-.19-.43-.37-.61-.61.16-.45,1.39-.08.77-.82-.42-.26-.84.11-1.21.29l-.5-.63c.43-.26.86-.63,1.4-.53.13.24.14.59.4.71.91-.02,1.55-.7,2.24-1.24-.48-.72-.88-1.72-.45-2.59.34-.87,1.24-1.61,1.28-2.57h.71" style="fill: #838f8c;"/>
  <path d="M150.02,23.39c.05.4-.02.82-.3,1.25-.57.78-1.32,1.59-.98,2.61.33,1.03,1.61,1.66,1.53,2.85,0,1.42-1.66,2.3-1.19,3.88l-.82-.26c-.33-1.41,1.17-2.13,1.19-3.43.21-1.5-1.7-2.05-1.59-3.51,0-1.11.97-1.81,1.4-2.75.07-.21.1-.43.09-.65h.66" style="fill: #838f8c;"/>
  <path d="M154.55,23.39c-.05.37.01.74.19,1.07.57.91,1.58,1.87.95,3.04-.66.97-1.76,1.91-1.32,3.17.48,1.1,1.5,2.15.95,3.51l-.82.18c.65-1.33-.33-2.65-.9-3.8-.7-1.66,1.5-2.45,1.53-3.96,0-.98-1.05-1.53-1.27-2.43-.45-.38-.92.15-1.45.05-.4.08-1-.55-1.24.13-.28.99-1.57,1.73-1,2.91.54,1.05,1.83,1.81,1.4,3.17-.39,1.27-1.66,2.47-.87,3.93-.33-.11-.93.1-.92-.42-.5-1.77,1.64-2.8.98-4.57-.31-1.08-1.71-1.68-1.4-2.99.23-1.07,1.43-1.82,1.26-3h3.94" style="fill: #838f8c;"/>
  <path d="M155.82,23.39c-.02.3.04.6.24.88.61.99,1.66,2.07,1.06,3.35-.69,1.03-1.88,2.08-1.22,3.43.48.81,1.23,1.62,1.03,2.61l-.79.26c.53-1.86-2.06-2.95-.98-4.81.67-.99,1.87-1.93,1.19-3.25-.4-.82-1.24-1.3-1.22-2.32l.03-.17h.66" style="fill: #838f8c;"/>
  <path d="M157.13,23.39c0,.26.06.52.19.75.57,1.03,1.6,2.01,1.22,3.3-.11.4-.42.71-.5,1.11.67.55,1.3,1.18,2.19,1.21.32-.2.14-1.1.79-.69l.95.48c-.07.25-.28.48-.47.66-.36-.18-.71-.39-1.16-.37-.13.14-.25.3-.24.5.32.05.61.18.87.37-.12.26-.36.43-.58.63l-.74-.26c-.12.18-.38.36-.29.55.17.07.35.17.47.29-.33.35-.74.58-1.14.82-.34-1.12-1.47-1.9-1.37-3.2l-.05-.05c-.26.3-.18.77-.16,1.16.32.81,1.07,1.44,1.19,2.32-.13.23-.43.27-.66.37.03-1.6-2.4-2.82-.84-4.44.52-.79,1.39-1.55,1.08-2.64-.32-1.05-1.44-1.71-1.43-2.89h.68" style="fill: #838f8c;"/>
  <path d="M164.17,23.39c0,.3.04.55-.08.86-1.21.34-2-.93-3.17-.74l.13.66c1.08.04,1.76,1.07,2.88,1.03-.16.32.07,1.15-.63.82-.73-.18-1.26-.82-2.06-.82-.1.18-.04.42-.05.63.84.13,1.45.85,2.3.98-.08.29-.16.62-.4.79-.69-.17-1.22-.78-1.96-.77l-.13.61c.7.02,1.14.63,1.77.82.02.26-.21.48-.34.71-.55-.17-.98-.64-1.61-.61,0-.24.13-.51.08-.77-.71.21-1.19-.45-1.72-.85-.02-1.3-1.38-2.15-1.45-3.37h6.45" style="fill: #838f8c;"/>
  <path d="M140.96,23.39c0-.12-.01-.2-.01-.2,1.09.42,2.05-.36,2.98-.77.24-.07.61.05.71-.21,0-.2.36-.44.05-.58-1.37-.19-2.27,1.46-3.67.71l-.11-.21c.29-3.98,2.54-7.83,6.26-9.72,3.33-1.9,8.43-1.74,11.57.48,1.66,1.02,3.26,2.7,4.12,4.41.83,1.5,1.21,3.18,1.32,4.96-1.44,1.09-2.41-1.03-3.88-.55.08.23.12.47.29.66,1.3,0,2.2,1.36,3.57.82v.2s-6.44,0-6.44,0c-.01-.27.03-.53.13-.78.45-1.04.31-2.39-.19-3.36-.15-.25-.41-.46-.66-.61.36.77.8,1.67.58,2.61-.03.73-.45,1.43-.46,2.13h-.68v-.09c.26-1.23,1.03-2.54.4-3.86-.18-.53-.57-1.13-1.11-1.35.8.92,1.12,2.41.66,3.65-.23.49-.55,1.07-.58,1.65h-.66c.27-1.45,1.38-2.82.61-4.37-.2-.46-.61-.92-1.06-1.19l-.03.03c.9.87,1.17,2.31.69,3.46-.23.68-.72,1.35-.82,2.07h-3.94c-.01-.1-.04-.2-.07-.3-.45-1.27-1.37-2.54-.82-4.02.15-.42.45-.78.71-1.16-.87.47-1.31,1.45-1.29,2.46-.04,1.09.77,2.03.88,3.02h-.66c-.05-1.03-.98-1.84-.83-3,.05-.85.34-1.6.9-2.24-.77.31-1.08,1.19-1.29,1.93-.37,1.19.51,2.25.6,3.31h-.71c0-.24-.03-.48-.12-.7-.48-1.22-.64-2.88.26-3.96-.49.13-.78.75-.95,1.21-.55,1.19.14,2.3.17,3.45h-6.41" style="fill: #838f8c;"/>
  <path d="M153.18,13.18l1.43.08-.03.13-1.06,1c.18.45.37.9.55,1.35.8-.47,1.57-1.05,2.54-1.11-.09.51-.48,1.05-.42,1.56.6-.17,1.15-.54,1.8-.5-.41.75-1,1.5-1.03,2.43-.89-.33-1.8-.74-2.8-.9-2.12-.36-4.17.11-5.92.95-.15-.89-.58-1.66-1.11-2.4.32-.11.7.07,1.03.16.27.08.5.26.79.32.05-.53-.26-1.05-.48-1.53.15-.11.39-.03.55.03.69.26,1.32.68,1.95,1.06.33-.38.45-.93.58-1.43l-1.08-.98v-.11l1.43-.08c.24-.45.4-.92.63-1.37.29.4.39.92.63,1.35" style="fill: #fff;"/>
  <path d="M153.68,16.06l-.13.13c-.66-.07-1.36.02-1.98.03-.07-.07-.21-.18-.08-.26l1-.77c.41.24.85.55,1.19.87" style="fill: #838f8c;"/>
  <path d="M136.06,16.43c-.55.42-.93,1.04-.82,1.74.06.11.12.26.26.29.44,0,.59-.47.79-.77.24-.53.7-1.1,1.32-1.16.54-.03,1,.11,1.35.53.54.64.44,1.68.19,2.43-.24.55-.61,1.12-1.14,1.48l-.95-.58c.52-.36,1.07-.95,1.14-1.61,0-.24-.05-.55-.34-.58-.61.18-.67.91-1.08,1.32-.32.33-.71.57-1.22.5-.47-.03-.86-.32-1.14-.69-.52-.79-.26-1.95.05-2.56.19-.34.42-.69.74-.95.26.15.57.38.84.61M170.56,17.12c.46.74.63,1.72.4,2.61l-.98-.05c.13-.59.23-1.33-.18-1.82-.12-.15-.34-.24-.5-.16-.54.6.05,1.46-.29,2.14-.16.31-.4.68-.74.82-.56.21-1.24.11-1.66-.32-.83-.86-1.21-2.2-.69-3.33h1.03c-.18.44-.3,1.07-.13,1.59.09.22.19.5.45.58.84.03.27-1.18.47-1.74.08-.42.31-.86.74-1.06.79-.39,1.72.05,2.09.74M144.65,18.78c.85-.33,2.02-.89,2.93-.29-.19.27-.57.42-.85.66-.45.44-.99.98-1.32,1.53-1.1-.22-1.98.42-2.91.79-.35.07-.82.11-1.11-.13.87-1.44,2.1-2.76,1.8-4.65.1-.17.26-.03.37.03.68.53,1,1.26,1.08,2.06M162.03,16.9c-.34,1.8.89,3.06,1.72,4.44-.95.63-1.85-.34-2.75-.58-.4-.06-.86-.11-1.24-.05-.54-.84-1.28-1.64-2.17-2.11.05-.29.46-.31.74-.34.78-.08,1.47.25,2.11.58.12-.29.18-.62.26-.92.21-.52.63-1.05,1.16-1.27.11.02.19.14.16.26M154.68,18.54c.03.15.18.28.08.45-.52-.16-1.11-.07-1.61.13-.45.33-.38,1.02-.26,1.51l.13.11c.22-.05.23-.33.42-.4.33.08.77.19,1.08,0,.27,0,.26.39.29.58-.19,1.02-.62,2.13-1.66,2.61-.43.21-.99.07-1.4-.08-1.02-.61-1.59-1.81-1.48-2.9.08-.17.2-.3.4-.19.41.28.86-.22,1.24.13.46-.2.18-.77.18-1.19-.37-.48-1-.41-1.56-.37-.25-.15.02-.39.08-.55.6-.84,1.74-.86,2.75-.74.51.13,1.07.35,1.32.9" style="fill: #fff;"/>
  <path d="M151.62,19.76v.11c-.3-.03-.78-.33-1.06.05-.18.08-.2-.12-.18-.24-.03-.11.03-.22.14-.26,0,0,.01,0,.02,0,.41-.1.88.03,1.08.34M154.76,19.62c0,.11.02.23-.11.29-.33-.13-.8-.32-1.14-.05-.19-.41.34-.33.53-.45.27,0,.59-.02.71.21" style="fill: #fff;"/>
  <path d="M153.07,21.32c-.16.33-.67.12-.95.18-.1-.04-.04-.14-.05-.21.28-.19.78-.22,1,.03M153.49,22.06c-.21.32-.53.71-.95.69-.48.04-.58-.35-.93-.58l-.03-.16c.63.1,1.33-.03,1.9.05" style="fill: #838f8c;"/>
  <path d="M137.04,26.18c.53,0,1.05.02,1.6,0l-1.23,1.02c.12.43.22.93.37,1.51l-1.22-.85c-.51.23-.82.52-1.35.79l.42-1.45c-.4-.33-.85-.64-1.23-.97.55-.01,1.04,0,1.57,0,.25-.46.36-.99.58-1.45l.48,1.4M143.3,33.12c.11.25.26.46.32.84-.28.18-.64.32-.96.48-.08-.58-.59-1.15-1.16-1.3-.48-.12-.99.11-1.35.53-.29.34-.38.84-.29,1.27.23.6.86,1.05,1.51,1.05h.18c-.13.34-.29.65-.47.96-1.07-.04-2.14-.66-2.54-1.69-.34-.84-.19-1.92.34-2.61.65-.83,1.69-1.06,2.69-.84.68.19,1.31.7,1.72,1.32M163.82,32.57l.07.07-1.58,1.48.53.64c.45-.35.93-.73,1.41-1.17.25.21.45.45.68.72-.47.45-.97.76-1.38,1.19.18.22.31.47.58.74l1.71-1.41.73.75c-.97.92-2.02,1.87-3.03,2.6l-2.98-3.86c.95-.79,1.75-1.51,2.59-2.35.26.17.44.39.69.61M147.02,35.82c.54.69.55,1.75.21,2.53-.37.8-1.09,1.3-1.88,1.48-.95.15-1.85-.16-2.54-.82-.61-.67-.94-1.63-.63-2.56.27-1.01,1.26-1.75,2.27-1.88,1.05-.06,2.02.42,2.56,1.24" style="fill: #fff;"/>
  <path d="M145.92,36.45c.3.7-.04,1.38-.53,1.87-.31.25-.71.4-1.12.25-.25-.12-.57-.35-.64-.62-.19-.7.13-1.36.62-1.85.3-.25.73-.39,1.11-.21.23.07.48.33.56.56" style="fill: #838f8c;"/>
  <path d="M156.43,37.57c-.74.11-1.45.19-2.15.31.07.35.04.58.09.84.66-.01,1.24-.13,1.85-.21l.18,1.13c-.63.12-1.26.21-1.89.27.02.51.09,1.13.08,1.7-.52.08-1.08.14-1.62.1l-.32-4.82v-.1c1.18-.11,2.36-.26,3.54-.45.05.36.16.78.24,1.22M160.47,35.4l.04.08-1.93.97.33.76c.59-.23,1.1-.43,1.69-.73.18.27.3.56.45.88-.53.28-1.08.5-1.66.76.11.26.16.45.35.87l2.04-.87.49.93c-1.19.61-2.47,1.22-3.64,1.65l-1.78-4.54c1.14-.49,2.11-.96,3.14-1.53.2.23.31.5.49.78M151.92,38.11c-.74-.12-1.44-.25-2.14-.36-.04.35-.14.57-.17.83.63.19,1.22.25,1.83.36l-.17,1.13c-.63-.08-1.26-.19-1.89-.32-.14.49-.26,1.11-.44,1.64-.52-.08-1.07-.2-1.57-.4l1.16-4.68.03-.1c1.17.25,2.37.47,3.51.64-.06.36-.09.79-.15,1.24M169.04,26.18c.53,0,1.01.01,1.6,0l-1.22,1.02c.12.43.22.93.37,1.51l-1.21-.85c-.51.23-.82.52-1.35.79l.42-1.45c-.4-.33-.85-.64-1.23-.97.55-.01,1.04,0,1.57,0,.22-.48.37-.94.58-1.45l.47,1.4" style="fill: #fff;"/>
  <path d="M174.64,23c0,12.41-9.92,22.48-22.13,22.48s-22.14-10.07-22.14-22.48S140.28.52,152.5.52s22.13,10.07,22.13,22.48Z" style="fill: none;"/>
</svg>
