<?xml version="1.0" encoding="UTF-8"?>
<svg id="Layer_1" data-name="Layer 1" xmlns="http://www.w3.org/2000/svg" viewBox="0 0 305 46">
  <path d="M176.49,19.93c-.62,0-1.12-.33-1.12-1,0-.98.99-2.32,2.01-2.32.65,0,.95.58.95,1.18,0,1.07-.71,2.14-1.85,2.14h0Z" style="fill: #838f8c; fill-rule: evenodd;"/>
  <path d="M213.42,23.24c-3.32,0-6.17,2.17-8.51,4.29l2.18-4.12h-2.98l-.71,1.27c-.54.97-1.32,1.85-2.03,2.69-1.87,2.19-3.94,4.21-6.18,6.04-2.64,2.12-7.98,5.89-11.63,5.89-1.52,0-2.86-1.24-2.86-2.78,0-1.1.44-2.1.87-3.08,1.39,0,2.73-.09,4.08-.46,2.67-.73,5.55-1.98,7.47-4.04.87-.94,1.77-2.21,1.77-3.56,0-1.79-1.8-2.61-3.37-2.61-4.88,0-9.69,5.46-12.63,8.89l-5.32,4.63c-1.28,1.12-3.22,2.58-4.96,2.58-.58,0-1.02-.52-1.02-1.09,0-.53.17-1.05.43-1.51l7.33-12.85h-2.96l-1.36,2.22c-.49.81-.99,1.62-1.55,2.39-1.04,1.45-2.28,2.76-3.54,4.02-1.75,1.75-3.59,3.48-5.59,4.93-1.09.79-2.3,1.66-3.7,1.66-.62,0-1.51-.33-1.51-1.07,0-.57.3-1.15.58-1.64l7.41-12.84h4.42l.24-.58h-4.44l3.82-6.66h-2.99l-2.21,3.78c-1.63,2.76-4.09,5.14-6.82,6.82-.44.27-.99.65-1.53.65-.14,0-.26-.05-.38-.13.6-.51,1.05-1.22,1.05-2.05,0-1.17-1.05-1.65-2.1-1.65-1.89,0-3.7.79-5.29,1.74l.87-1.57h-3.2l-1.9,3.49c-2.04,3.77-5.09,6.76-8.44,9.37-1.29,1.02-3.24,2.57-4.99,2.57-.67,0-1.41-.43-1.41-1.18,0-.65.31-1.29.63-1.84l7.07-12.41h-3.03l-1.61,2.81c-.07-2.46-1.24-3.67-3.78-3.67-4.81,0-9.29,3.78-12.05,7.4-.89,1.16-1.55,2.41-2.14,3.74-3.7,2.47-8.95,5.96-13.5,5.96-4.2,0-6.46-2.74-6.46-6.85,0-3.45,1.13-6.92,2.62-9.98,3.1-6.44,8.25-12.14,14.7-15.31,1.78-.87,3.81-1.48,5.81-1.48,2.68,0,6.64,1.48,6.64,4.64,0,.65-.14,1.26-.32,1.87l.45.3c1.02-2.77,2.1-4.56,4.58-6.23l-.45-.47c-1.05.77-2.21,1.57-3.58,1.57-.39,0-.81-.04-1.16-.23l-1.83-1c-1.27-.7-2.8-.89-4.23-.89-1.12,0-2.23.14-3.32.4-3.99.97-7.8,2.97-10.96,5.58-4.09,3.38-7.57,7.64-9.95,12.39-1.22,2.45-2.31,5.14-2.31,7.92,0,5.12,3.63,8.54,8.71,8.54s10.43-3.31,14.39-6.11h0c-.21.69-.4,1.4-.4,2.14,0,2.29,1.92,3.86,4.14,3.86,3.4,0,6.48-2.41,8.72-4.76-.35.77-.68,1.57-.68,2.44,0,1.39,1.18,2.01,2.45,2.01,4.72,0,9.76-4.89,12.87-8.18l-4.62,8.08h3.15l6.49-11.3c.75-1.31,1.58-2.57,2.89-3.36,1.29-.78,2.94-1.54,4.49-1.54.53,0,1.32.39,1.32,1.02,0,.19-.06.38-.13.55-.22-.13-.44-.21-.7-.21-.91,0-1.73.74-1.73,1.66s.75,1.46,1.6,1.46c1.4,0,2.64-.96,3.7-1.78,1.21-.95,2.38-1.96,3.51-3.01l-6.25,10.97c-.58,1.01-1.37,2.17-1.37,3.37,0,1.45,1.37,2.2,2.65,2.2,2.02,0,3.9-1.05,5.51-2.19,2.92-2.07,5.48-4.61,7.89-7.26l-2.46,4.33c-.52.91-1.24,1.87-1.24,2.96,0,1.61,1.22,2.14,2.72,2.14,3.96,0,7.96-4.07,10.7-6.61-.2.82-.4,1.64-.4,2.48,0,2.85,2.44,4.33,5.07,4.33s5.35-1.25,7.65-2.63c2.24-1.34,4.36-2.89,6.36-4.57,1.78-1.5,3.36-3.17,4.87-4.95l-6.92,11.93h3.07l4.26-7.31c1.7-2.92,3.95-5.59,6.88-7.33,1.29-.77,2.85-1.53,4.4-1.53.67,0,1.09.27,1.37.85-.16-.02-.33-.04-.5-.04-.85,0-1.84.68-1.84,1.6,0,.58.59,1.13,1.16,1.13,1.1,0,2.01-1.2,2.01-2.24,0-1.11-.85-1.79-1.94-1.79ZM190.99,23.39c.81,0,1.77.38,1.77,1.3,0,1.77-1.7,3.89-2.9,5.04-1.9,1.83-4.66,3.17-7.33,3.17-.28,0-.55-.02-.83-.03,1.74-2.9,5.5-9.49,9.28-9.49ZM117.51,39.3c-1.58,0-2.45-1.35-2.45-2.81,0-1.3.48-2.45,1.04-3.61,1.51-3.08,3.88-5.94,6.66-7.97,1.38-1.02,2.85-1.89,4.61-1.89,1.61,0,2.9,1.04,2.9,2.68h0c0,2.26-1.8,4.94-3.12,6.71-2.09,2.8-5.95,6.89-9.63,6.89Z" style="fill: #838f8c; fill-rule: evenodd;"/>
</svg>
