<?xml version="1.0" encoding="UTF-8"?>
<svg id="Layer_1" data-name="Layer 1" xmlns="http://www.w3.org/2000/svg" viewBox="0 0 305 46">
  <path id="Fill-4" d="M170.8,20.61c.07,0,.14,0,.21,0l1.66.14c2.04.15,2.14.43,2.14.93,0,.64-.87,1.06-2.21,1.06-1.89,0-2.28-.46-2.28-1.16,0-.36.17-.7.49-.98ZM172.49,11.51c1.08,0,1.31.98,1.31,1.8,0,1.16-.48,1.82-1.31,1.82-1.14,0-1.31-1.14-1.31-1.82s.17-1.8,1.31-1.8ZM167.37,22.12c0,1.79,1.47,2.49,4.77,2.49s5.7-1.27,5.7-3.4-1.3-2.94-4.64-3.16l-1.41-.07c-.82-.09-.85-.27-.85-.47,0-.07.02-.18.18-.33.43.1.88.15,1.35.15,2.73,0,4.42-1.58,4.42-4.11,0-.39-.06-.78-.2-1.21.56-.1,1.05-.1,1.3-.1h.17v-2.87l-.19.02c-.79.09-1.75.51-2.38,1.05-.76-.67-1.84-1.03-3.12-1.03-2.74,0-4.51,1.62-4.51,4.14,0,1.32.52,2.45,1.46,3.2-.78.57-1.27,1.37-1.27,2.08,0,.57.24,1.05.7,1.4-1,.58-1.49,1.3-1.49,2.21ZM135.92,31.23h-4.88v-5.82h-3.46v15.31h3.46v-6.55h4.88v6.55h3.46v-15.31h-3.46v5.82ZM162.85,40.71h3.38v-14.2l-3.38.45v13.75ZM157.49,37.41c-.55.51-1.14.76-1.76.76-.55,0-.86-.33-.86-.92,0-.64.3-1.45,2.62-1.98v2.14ZM160.77,37.87v-4.87c0-2.6-1.16-3.81-3.64-3.81-1.97,0-3.73.62-5.08,1.81l-.12.11,1.58,2.07.14-.1c.59-.43,1.75-1.16,2.92-1.16.68,0,.94.3.94,1.08v.31c-3.97.75-5.9,2.22-5.9,4.5,0,1.92,1.04,3.03,2.84,3.03,1.24,0,2.24-.43,3.07-1.32.03.47.12.81.2,1.08l.04.12h3.37l-.09-.23c-.18-.5-.26-1.23-.26-2.61ZM151.45,17.3c-.55.51-1.14.77-1.76.77-.55,0-.86-.33-.86-.92,0-.65.3-1.45,2.62-1.99v2.14ZM151.69,20.61h3.37l-.09-.23c-.18-.5-.26-1.23-.26-2.61v-4.87c0-2.6-1.16-3.81-3.64-3.81-1.97,0-3.73.63-5.08,1.81l-.12.11,1.57,2.07.14-.1c.59-.43,1.75-1.16,2.92-1.16.67,0,.94.3.94,1.08v.31c-3.97.75-5.9,2.22-5.9,4.5,0,1.92,1.04,3.03,2.84,3.03,1.24,0,2.24-.43,3.07-1.33.03.47.12.81.2,1.08l.04.12ZM163.41,9.09c-1.33,0-2.43.71-3.09,1.43v-1.21h-3.38v11.29h3.38v-7.72c.66-.59,1.24-.89,1.74-.89.42,0,.81.13.81,1.1v7.51h3.36v-8.47c0-1.99-.97-3.05-2.82-3.05ZM172.45,25.69l-3.36.45v3.29h-1.56v2.58h1.56v5.81c0,2.23.92,3.03,3.5,3.03.68,0,1.7-.08,1.94-.15l.12-.04v-2.57l-.24.1c-.11.05-.54.11-.84.11-.92,0-1.12-.22-1.12-1.25v-5.05h2.34v-2.58h-2.34v-3.74ZM196.62,9.09c-1.33,0-2.43.71-3.09,1.43v-1.21h-3.38v11.29h3.38v-7.72c.66-.59,1.24-.89,1.74-.89.42,0,.81.13.81,1.1v7.51h3.36v-8.47c0-1.99-.98-3.05-2.82-3.05ZM205.81,11.75c.32,0,1.28,0,1.46,2.06h-2.99c.16-1.33.71-2.06,1.53-2.06ZM208.35,16.73l-.1.16c-.41.65-1.2,1.34-2.22,1.34-1.08,0-1.66-.77-1.79-2.35h6.13v-.73c0-3.86-1.66-6.07-4.57-6.07-2.26,0-4.9,1.54-4.9,5.88,0,3.67,1.86,5.86,4.98,5.86,1.89,0,3.34-.76,4.41-2.33l.09-.13-2.04-1.64ZM182.77,29.2c-1.33,0-2.43.7-3.09,1.43v-5.9l-3.38.45v15.54h3.38v-7.72c.66-.59,1.24-.89,1.74-.89.42,0,.81.13.81,1.1v7.5h3.36v-8.47c0-1.99-.98-3.05-2.82-3.05ZM183.56,18.17c-.69,0-1.62-.33-1.62-3.2,0-2.17.5-3.14,1.62-3.14.69,0,1.62.32,1.62,3.14,0,2.21-.5,3.2-1.62,3.2ZM183.56,9.09c-1.4,0-2.6.47-3.48,1.37-1.01,1.03-1.52,2.55-1.52,4.52,0,4.32,2.58,5.86,5,5.86s5-1.54,5-5.86c0-1.96-.52-3.48-1.53-4.52-.88-.89-2.08-1.37-3.47-1.37ZM145.9,31.86c.32,0,1.28,0,1.46,2.06h-2.99c.16-1.33.71-2.06,1.53-2.06ZM148.34,37c-.41.65-1.2,1.34-2.22,1.34-1.08,0-1.67-.77-1.79-2.35h6.13v-.73c0-3.85-1.67-6.07-4.57-6.07-2.26,0-4.9,1.54-4.9,5.88,0,3.67,1.86,5.86,4.98,5.86,1.89,0,3.34-.76,4.41-2.33l.09-.13-2.04-1.64-.1.16ZM131.04,15.16V5.06h-3.32v9.95c0,2.04-.58,2.87-1.99,2.87s-1.99-.81-1.99-2.89V5.06h-3.46v10.11c0,3.77,1.82,5.68,5.41,5.68s5.35-1.86,5.35-5.7ZM102.87,14c-1.1-2.19-4.55-8.54-4.72-8.84l-.05-.09h-3.5v15.54h3.18v-9.17c1.13,2.15,4.87,8.77,5.05,9.08l.05.09h3.17V5.06h-3.18v8.93ZM144.12,17.7h-4.68V5.06h-3.46v15.54h8.15v-2.91ZM114.94,20.61v-6.11l4.39-9.43h-3.42l-2.62,6.19-2.62-6.19h-3.56l4.37,9.45v6.09h3.46Z" style="fill: #838f8c;"/>
</svg>
