<?xml version="1.0" encoding="UTF-8"?>
<svg id="Layer_1" data-name="Layer 1" xmlns="http://www.w3.org/2000/svg" viewBox="0 0 305 46">
  <path d="M172.71,10.08c-.04.81,0,.98,0,1.93l-20.43-5.72-20.07,5.61v-1.78s19.21-5.36,20.02-5.65l20.48,5.61Z" style="fill: #838f8c;"/>
  <polygon points="169.54 12.17 164.13 12.17 152.46 8.73 140.57 12.17 135.29 12.17 152.42 7.34 169.54 12.17" style="fill: #838f8c;"/>
  <rect x="132.21" y="13.46" width="40.53" height="1.87" style="fill: #838f8c;"/>
  <path d="M163.55,16.98v4.16h-1.1v-4.16c0-.32-.58-.36-.58-.01v14.69c0,.52.63.52.63,0v-4.08h1.06v4.08c0,2.07-2.78,1.97-2.78,0v-14.69c0-1.63,2.77-1.63,2.77.01" style="fill: #838f8c;"/>
  <path d="M157.01,16.97v4.16h-1.14c0-1.64,0-3.56,0-4.16,0-.37-.56-.35-.56,0v4.16c.56,2.68,1.69,5.11,1.69,6.45v4.08c0,1.97-2.78,2.01-2.78,0v-4.08h1.09v4.08c0,.52.51.52.51,0v-3.96c-.2-1.04-1.53-5.83-1.59-6.57v-4.16c0-1.63,2.78-1.63,2.78,0" style="fill: #838f8c;"/>
  <path d="M143.43,24.61c.03-.59,0-6.33,0-8.71h.82s0,17.33,0,17.33h-.82s-.93-10.35-1.16-10.53v10.53h-.83V15.91h1.12s.77,8.52.87,8.71" style="fill: #838f8c;"/>
  <path d="M150.36,16.88h-1.14v6.55h1.14v.95h-1.14v7.78h1.52c0,.37,0,.7,0,1.07h-2.77V15.91h2.38v.97Z" style="fill: #838f8c;"/>
  <path d="M135.86,15.91v15.75c-.01.52.63.52.63,0,0-.21,0-15.75,0-15.75h1.07v16.26c0,1.57-2.75,1.52-2.75,0V15.91s1.05,0,1.05,0Z" style="fill: #838f8c;"/>
  <path d="M168.68,16.86v14.8c0,.52.67.52.67,0v-14.69c0-.47-.69-.46-.67-.11M170.53,16.97l-.02,14.69c0,2.02-2.98,2.01-2.98,0v-14.69c0-1.63,2.98-1.63,3,0Z" style="fill: #838f8c;"/>
  <path d="M172.72,35.82h-40.51c0-.62,0-.63.01-1.75h40.49s0,1.75,0,1.75Z" style="fill: #838f8c;"/>
  <rect x="129.83" y="36.98" width="45.48" height="1.65" style="fill: #838f8c;"/>
  <rect x="127.48" y="39.79" width="50.05" height="1.75" style="fill: #838f8c;"/>
</svg>
