<svg xmlns="http://www.w3.org/2000/svg" id="Layer_1" data-name="Layer 1" viewBox="0 0 305 46">
  <g>
    <path d="M137.81,36.66h.74l1.27,1.99,1.25-1.99h.74l.2,4.22h-.78l-.14-2.92-1.11,1.72h-.37l-1.12-1.68-.14,2.88h-.75l.2-4.22Z" style="fill: #838f8c;"/>
    <path d="M145.22,36.66h.82l1.6,4.22h-.89l-.37-1.07h-1.57l-.37,1.07h-.84l1.6-4.22ZM146.16,39.16l-.56-1.64-.56,1.64h1.12Z" style="fill: #838f8c;"/>
    <path d="M149.32,36.66h1.6c.27,0,.49.04.68.12.19.08.34.18.45.31.11.12.2.26.25.41.05.15.08.29.08.42,0,.27-.06.5-.17.71-.12.2-.29.37-.53.49l.97,1.77h-.9l-.85-1.66h-.8v1.66h-.77v-4.22ZM150.92,38.56c.2,0,.36-.06.47-.18.11-.12.17-.26.17-.43,0-.18-.06-.33-.18-.44-.12-.11-.27-.17-.46-.17h-.84v1.22h.84Z" style="fill: #838f8c;"/>
    <path d="M154.44,36.66h1.6c.27,0,.49.04.68.12.19.08.34.18.45.31.11.12.2.26.25.41.05.15.08.29.08.42,0,.27-.06.5-.17.71-.12.2-.29.37-.54.49l.98,1.77h-.9l-.85-1.66h-.8v1.66h-.77v-4.22ZM156.04,38.56c.2,0,.36-.06.47-.18.11-.12.17-.26.17-.43,0-.18-.06-.33-.18-.44-.12-.11-.27-.17-.46-.17h-.84v1.22h.84Z" style="fill: #838f8c;"/>
    <path d="M159.75,36.66h.8v4.22h-.8v-4.22Z" style="fill: #838f8c;"/>
    <path d="M164.67,41c-.31,0-.59-.06-.86-.17-.27-.12-.5-.27-.7-.48-.2-.2-.35-.44-.47-.71-.11-.27-.17-.56-.17-.87s.06-.6.17-.87c.11-.27.27-.51.47-.71.2-.2.43-.36.7-.47.27-.12.56-.17.86-.17s.6.06.86.17c.27.12.5.27.7.47.2.2.35.44.47.71.11.27.17.56.17.87s-.06.6-.17.87c-.11.27-.27.51-.47.71-.2.2-.43.36-.7.48-.27.12-.55.17-.86.17ZM164.67,40.25c.21,0,.39-.04.56-.12.17-.08.31-.19.43-.33.12-.14.21-.3.27-.48.06-.18.09-.37.09-.57s-.03-.39-.09-.57c-.06-.18-.15-.34-.27-.47-.12-.14-.26-.24-.43-.32-.17-.08-.36-.12-.56-.12s-.4.04-.57.12c-.17.08-.31.18-.43.32-.12.14-.21.29-.27.47-.06.18-.1.37-.1.57s.03.39.1.57c.06.18.15.34.27.48.12.14.26.25.43.33.17.08.36.12.57.12Z" style="fill: #838f8c;"/>
    <path d="M169.34,37.37h-1.43v-.7h3.66v.7h-1.43v3.52h-.8v-3.52Z" style="fill: #838f8c;"/>
    <path d="M174.35,37.37h-1.43v-.7h3.66v.7h-1.43v3.52h-.8v-3.52Z" style="fill: #838f8c;"/>
  </g>
  <path d="M159.18,32.44h7.12l-11.91-27.01-5.97,2.76,4.16,9.4-1.94,4.38-7.45-16.98-6.04,2.63,4.85,10.85s-.01.03-.02.04c-2.99,6.84-6.66,8.72-7.02,8.86-.85.33-1.77.51-2.73.51-.29,0-.59-.02-.87-.04l-2.93,5.96c.97.53,2.05.84,3.21.84,1.47,0,2.8-.48,3.92-1.29v.02s2.75-1.33,5.71-8.63c0,0,1.09-2.34,1.67-3.82l.06-.17,5.2,11.69h7.11l-3.66-8.22,1.94-4.38,5.61,12.6Z" style="fill: #838f8c;"/>
</svg>
